<?xml version="1.0" standalone="no"?>
<!DOCTYPE svg PUBLIC "-//W3C//DTD SVG 20010904//EN"
 "http://www.w3.org/TR/2001/REC-SVG-20010904/DTD/svg10.dtd">
<svg version="1.0" xmlns="http://www.w3.org/2000/svg"
 width="970.000000pt" height="970.000000pt" viewBox="0 0 970.000000 970.000000"
 preserveAspectRatio="xMidYMid meet">

<g transform="translate(0.000000,970.000000) scale(0.100000,-0.100000)"
fill="#000000" stroke="none">
<path d="M2882 9138 c6 -18 25 -20 31 -3 5 10 0 15 -14 15 -12 0 -19 -5 -17
-12z"/>
<path d="M2886 8908 c4 -40 7 -82 6 -93 -1 -10 4 -25 11 -33 6 -8 10 -29 9
-47 -3 -33 18 -65 43 -65 17 0 17 56 0 70 -7 6 -12 47 -14 107 -2 99 -14 133
-48 133 -11 0 -12 -15 -7 -72z"/>
<path d="M2850 8813 c0 -23 22 -83 29 -79 12 8 -2 79 -17 84 -6 2 -12 0 -12
-5z"/>
<path d="M2895 8473 c3 -16 13 -35 21 -43 12 -12 14 -10 14 16 0 29 -15 54
-33 54 -5 0 -6 -12 -2 -27z"/>
<path d="M2959 8403 c-1 -16 0 -32 1 -38 1 -5 4 -35 6 -65 8 -130 10 -146 17
-157 5 -7 17 -13 27 -13 17 0 18 7 14 73 -8 107 -8 111 -17 125 -5 7 -3 12 3
12 7 0 10 6 7 14 -3 8 1 17 9 20 22 9 16 32 -11 44 -41 19 -55 15 -56 -15z"/>
<path d="M2960 7945 c0 -3 8 -22 17 -43 l17 -37 4 28 c2 16 -2 35 -9 43 -11
14 -29 19 -29 9z"/>
<path d="M3012 7775 c3 -30 1 -52 -4 -49 -11 7 -10 -58 2 -76 8 -12 10 -9 10
13 0 24 2 26 19 17 32 -17 32 -20 22 107 -1 15 -29 43 -43 43 -7 0 -9 -20 -6
-55z"/>
<path d="M3040 7402 c0 -14 6 -22 16 -22 14 0 15 3 3 18 -7 9 -15 19 -16 21
-2 2 -3 -5 -3 -17z"/>
<path d="M3067 7342 c-3 -15 -4 -41 -2 -57 2 -17 7 -65 10 -107 7 -69 25 -122
38 -108 2 3 1 32 -4 65 -13 104 -11 165 6 165 23 0 18 37 -7 54 -30 22 -35 20
-41 -12z"/>
<path d="M3140 6207 c0 -48 4 -87 9 -87 8 0 3 160 -5 169 -2 2 -4 -35 -4 -82z"/>
<path d="M3140 5776 c0 -9 5 -16 10 -16 6 0 10 4 10 9 0 6 -4 13 -10 16 -5 3
-10 -1 -10 -9z"/>
<path d="M3517 5681 c-2 -10 -1 -25 4 -32 4 -8 6 -36 4 -62 -3 -27 0 -58 6
-69 7 -13 7 -18 1 -14 -7 4 -10 -10 -8 -39 1 -25 -1 -45 -6 -45 -4 0 -8 -8 -8
-17 1 -14 7 -11 28 13 l27 32 870 -438 c479 -241 1075 -541 1325 -668 250
-126 462 -232 470 -234 13 -4 12 -9 -4 -27 -20 -22 -20 -22 0 -15 10 3 40 17
67 31 26 13 47 20 47 14 0 -5 -42 -42 -92 -82 -51 -40 -104 -85 -117 -101
l-23 -29 20 -22 c12 -12 127 -76 257 -142 234 -118 237 -119 301 -117 69 2 73
4 256 160 14 12 21 12 32 3 8 -7 21 -9 28 -5 7 4 -2 -9 -20 -28 -18 -19 -30
-37 -27 -40 10 -10 -99 -98 -121 -98 -12 0 -45 -22 -75 -50 -57 -54 -61 -54
-129 -20 -19 10 -66 34 -105 53 -38 19 -167 85 -287 146 -119 61 -218 111
-221 111 -3 0 -7 -8 -10 -19 -3 -14 5 -23 37 -36 22 -10 54 -27 71 -36 l29
-18 -37 6 c-29 4 -37 2 -37 -10 0 -9 9 -19 21 -22 21 -7 21 -7 -2 -19 -20 -11
-27 -10 -41 2 -19 16 -38 9 -38 -15 0 -9 -6 -13 -15 -9 -18 6 -65 -13 -65 -27
0 -5 6 -4 14 2 11 9 19 9 35 -1 l20 -12 -20 -22 c-28 -30 -8 -39 26 -13 24 20
30 21 65 9 21 -7 47 -10 57 -6 16 5 16 5 -1 -9 -11 -8 -26 -15 -34 -15 -7 0
-11 -4 -7 -10 4 -6 15 -6 31 0 38 15 46 12 34 -11 -13 -24 -3 -42 10 -19 23
37 29 44 36 37 4 -4 -1 -16 -12 -28 -18 -20 -18 -21 1 -35 10 -8 22 -14 27
-14 13 0 9 18 -4 23 -8 3 -5 6 6 6 12 1 16 6 12 16 -3 8 -1 15 3 15 5 0 11 -7
15 -15 3 -8 12 -12 19 -9 17 6 127 -47 177 -86 19 -15 50 -32 68 -38 18 -6 45
-20 60 -31 15 -10 53 -27 85 -36 68 -20 103 -12 181 42 53 36 55 37 76 23 12
-7 12 -12 -4 -29 -19 -21 -19 -21 2 -21 28 0 72 48 64 69 -9 24 -43 51 -65 51
-20 0 -20 0 -1 21 30 33 53 42 71 28 13 -11 20 -8 44 19 16 18 29 40 29 50 -1
15 -2 15 -15 -2 -14 -19 -15 -19 -15 7 0 15 5 27 10 27 6 0 16 13 23 29 l12
29 188 -94 c176 -89 217 -105 217 -86 0 4 -92 54 -205 111 -197 99 -205 104
-205 132 0 17 -6 32 -15 35 -8 4 -15 12 -15 20 0 17 31 19 47 3 8 -8 13 -8 17
0 4 6 -4 15 -19 21 -35 13 -41 13 -59 -5 -13 -13 -19 -14 -38 -4 -22 13 -22
13 15 22 40 10 48 23 20 30 -14 4 -12 5 5 6 12 0 22 -4 22 -10 0 -6 5 -7 13
-2 15 10 101 32 105 28 2 -2 -1 -13 -8 -24 -6 -12 -8 -26 -5 -31 3 -5 -4 -23
-16 -39 -14 -19 -19 -36 -15 -47 5 -14 9 -15 15 -5 6 10 10 9 14 -4 5 -10 3
-14 -4 -9 -7 4 -10 1 -7 -7 8 -25 80 -53 136 -53 61 0 79 16 56 48 -23 33 -16
41 11 12 14 -15 22 -32 19 -38 -14 -22 20 -1 39 24 12 17 16 31 11 40 -5 7 -9
19 -11 27 -1 8 -19 32 -40 54 l-38 39 122 -61 c68 -35 127 -60 133 -56 6 3 20
3 31 0 20 -7 20 -8 5 -24 -16 -15 -20 -14 -57 6 -32 17 -46 20 -66 12 -14 -5
-34 -7 -44 -4 -11 4 -19 2 -19 -5 0 -7 9 -14 20 -17 26 -7 25 -9 -7 -37 -16
-14 -22 -25 -15 -29 5 -4 24 4 40 18 39 33 49 32 26 -2 -52 -79 -53 -108 -6
-141 31 -22 88 -42 62 -22 -12 10 -11 11 5 4 50 -19 109 -16 144 8 30 20 34
28 34 63 0 24 -5 39 -12 38 -6 -2 -11 3 -11 10 0 8 -12 24 -26 38 -14 13 -33
40 -43 59 -12 27 -23 36 -46 38 -17 1 -85 28 -152 60 -94 44 -122 61 -122 77
-1 19 -2 19 -23 -2 -20 -20 -23 -21 -49 -7 -27 13 -29 13 -43 -13 -8 -16 -15
-24 -16 -20 0 5 5 17 10 27 16 29 -3 32 -60 11 -44 -17 -51 -17 -46 -4 8 20
-42 100 -66 106 -10 3 -18 10 -18 16 0 6 49 -14 110 -44 76 -38 121 -55 147
-55 32 1 35 2 20 11 -10 6 -24 8 -32 6 -7 -3 -64 19 -126 50 -63 31 -120 56
-126 56 -7 0 -13 6 -13 14 0 16 -14 17 -38 2 -14 -9 -25 -8 -50 5 -44 23 -79
20 -108 -9 -22 -22 -24 -28 -13 -41 8 -10 24 -14 41 -12 20 3 25 1 18 -6 -5
-5 -10 -29 -10 -53 0 -47 -19 -61 -21 -15 -2 23 -2 24 -6 5 -2 -13 -7 -23 -10
-23 -17 0 -152 83 -148 91 4 5 8 9 11 9 3 0 2 -5 -2 -12 -5 -8 -2 -9 10 -5 10
4 23 7 29 7 8 0 9 3 2 8 -15 10 -35 81 -28 98 6 17 25 19 22 2 -3 -23 13 -78
23 -78 5 0 6 -4 3 -10 -3 -5 -2 -10 4 -10 14 0 51 50 51 69 0 14 -2 14 -10 1
-8 -12 -10 -9 -10 13 0 16 -4 26 -10 22 -5 -3 -10 1 -10 9 0 9 -9 16 -21 16
-11 0 -17 5 -14 10 3 6 1 10 -4 10 -6 0 -10 3 -9 8 2 10 -30 82 -37 82 -3 0
-4 -4 0 -9 3 -6 -2 -14 -12 -19 -12 -7 -32 -3 -71 14 -64 28 -63 28 -56 10 3
-9 -7 -24 -25 -37 -32 -24 -27 -39 14 -39 16 0 17 2 6 9 -12 8 -11 13 10 30
45 38 59 20 23 -31 -14 -19 -26 -48 -28 -64 -2 -16 -4 -32 -5 -36 -2 -15 -21
-8 -21 8 0 14 -1 14 -16 0 -16 -17 -29 -21 -20 -8 3 5 -15 18 -39 30 -43 21
-46 21 -74 4 l-30 -17 -673 338 c-1560 782 -2044 1026 -2055 1036 -7 7 -13 29
-13 51 0 34 5 42 49 74 27 20 51 36 55 36 14 0 4 -26 -18 -49 -54 -57 -35
-116 44 -140 63 -19 160 1 160 33 0 8 8 13 18 12 23 -1 28 46 7 68 -21 21 -39
21 -31 -1 8 -20 -10 -33 -46 -33 -27 0 -28 2 -28 49 0 30 -5 51 -12 54 -9 3
-7 9 7 20 25 19 14 33 -13 16 -17 -10 -25 -10 -46 4 -26 17 -27 17 -81 -24
-53 -40 -83 -47 -55 -14 10 12 10 19 2 27 -9 9 -12 8 -12 -6 0 -9 -4 -15 -9
-12 -4 3 -7 17 -6 31 4 29 -10 34 -18 6z m206 -167 c-8 -21 -23 -17 -23 6 0
13 5 18 14 14 8 -3 12 -12 9 -20z m2645 -1475 c-27 -22 -48 -45 -48 -51 0 -7
-7 -19 -16 -29 -15 -17 -14 -19 17 -38 19 -12 38 -21 42 -21 5 0 6 -4 3 -8 -3
-5 11 -16 30 -26 20 -9 32 -12 29 -6 -4 6 18 -2 49 -17 30 -14 53 -30 50 -35
-5 -7 10 -12 29 -9 4 1 22 -6 40 -15 18 -10 47 -18 65 -20 27 -2 35 2 44 22 6
13 17 24 24 24 7 0 22 13 33 28 15 22 17 32 9 40 -7 7 -10 14 -7 16 5 5 109
-41 109 -49 0 -10 -40 -70 -40 -60 0 6 -5 3 -10 -5 -5 -8 -15 -15 -22 -15 -7
0 -17 -10 -23 -22 -5 -13 -15 -23 -21 -23 -7 0 -21 -16 -33 -36 -22 -36 -54
-44 -76 -17 -5 7 -68 42 -140 79 -71 36 -134 70 -139 75 -6 5 -17 9 -26 9 -9
0 -25 9 -34 19 -10 11 -29 22 -44 26 -15 4 -30 12 -34 18 -4 7 -15 12 -24 12
-28 0 -27 22 1 42 14 10 49 36 77 58 98 75 165 102 86 34z m492 26 c0 -8 -11
-22 -26 -31 -20 -13 -28 -14 -37 -5 -9 10 -7 17 12 32 28 23 51 25 51 4z m101
-108 c-10 -9 -11 -8 -5 6 3 10 9 15 12 12 3 -3 0 -11 -7 -18z m-26 -137 c3 -5
2 -10 -4 -10 -5 0 -13 5 -16 10 -3 6 -2 10 4 10 5 0 13 -4 16 -10z m316 -27
c8 -9 9 -14 2 -10 -7 4 -13 0 -15 -10 -3 -13 -6 -10 -10 10 -6 31 3 35 23 10z
m78 -6 c8 -10 7 -14 -2 -14 -7 0 -18 6 -25 14 -10 10 -10 13 1 13 8 0 20 -6
26 -13z m-39 -17 c0 -5 -2 -10 -4 -10 -3 0 -8 5 -11 10 -3 6 -1 10 4 10 6 0
11 -4 11 -10z m-1056 -98 c66 -1 91 -12 30 -13 -21 0 -33 -3 -26 -6 6 -2 12
-15 12 -28 0 -21 -4 -24 -29 -20 -15 2 -37 8 -47 13 -11 6 -34 17 -51 24 -35
14 -44 28 -18 28 8 0 15 7 15 15 0 14 4 14 28 2 15 -8 53 -14 86 -15z m130
-77 c11 -8 15 -15 10 -15 -6 0 -19 7 -30 15 -10 8 -14 14 -9 14 6 0 19 -6 29
-14z m71 -5 c13 -6 15 -9 5 -9 -8 0 -22 4 -30 9 -18 12 -2 12 25 0z m60 -65
c17 -4 36 -12 43 -18 8 -6 12 -6 12 2 0 6 7 11 15 11 9 0 0 -14 -23 -35 -35
-34 -36 -35 -11 -29 15 3 30 1 33 -5 5 -7 -3 -10 -21 -8 -39 4 -113 53 -113
75 0 20 12 21 65 7z m235 -115 c17 17 87 36 97 26 25 -25 -78 -82 -132 -73
-35 6 -148 57 -141 64 2 3 23 -5 46 -17 l41 -21 21 26 21 27 15 -25 c14 -23
16 -23 32 -7z"/>
<path d="M6447 3839 c7 -7 15 -10 18 -7 3 3 -2 9 -12 12 -14 6 -15 5 -6 -5z"/>
<path d="M3890 5595 c58 -30 110 -54 115 -54 6 0 -37 24 -95 54 -58 30 -109
54 -115 54 -5 0 37 -24 95 -54z"/>
<path d="M3770 5585 c0 -8 2 -15 4 -15 2 0 6 7 10 15 3 8 1 15 -4 15 -6 0 -10
-7 -10 -15z"/>
<path d="M4035 5550 c-4 -6 3 -10 14 -10 25 0 27 6 6 13 -8 4 -17 2 -20 -3z"/>
<path d="M3996 5521 c-3 -5 -26 -14 -51 -20 -51 -13 -56 -23 -20 -39 33 -15
42 -15 27 0 -18 18 -15 28 8 28 38 0 21 -73 -21 -90 -34 -15 -37 -38 -9 -71
17 -20 21 -22 29 -9 6 8 8 25 4 38 -4 16 1 28 13 37 27 20 33 19 44 -10 11
-30 31 -32 55 -5 10 11 24 20 32 20 20 0 16 8 -17 42 -16 16 -30 36 -30 44 0
16 -57 48 -64 35z"/>
<path d="M3142 5480 c0 -14 2 -19 5 -12 2 6 2 18 0 25 -3 6 -5 1 -5 -13z"/>
<path d="M4210 5435 c62 -31 115 -54 117 -51 7 7 -193 106 -213 106 -9 0 34
-25 96 -55z"/>
<path d="M4350 5390 c8 -5 20 -10 25 -10 6 0 3 5 -5 10 -8 5 -19 10 -25 10 -5
0 -3 -5 5 -10z"/>
<path d="M4133 5350 c5 -42 19 -48 47 -20 30 30 22 53 -18 54 -31 1 -32 0 -29
-34z"/>
<path d="M4245 5344 l-30 -24 24 -19 c14 -10 31 -17 38 -14 16 6 7 23 -13 23
-8 0 -14 5 -14 10 0 12 20 13 39 1 10 -6 11 -16 4 -37 -8 -23 -16 -29 -47 -32
-50 -5 -86 5 -86 23 0 8 -5 15 -10 15 -13 0 -46 -67 -37 -76 3 -3 27 1 53 10
61 21 64 20 64 -7 0 -59 64 -92 162 -84 66 5 62 10 41 -55 -7 -22 6 -23 71 -3
l48 15 -6 -25 c-5 -20 0 -32 24 -55 35 -34 80 -45 156 -37 l54 6 -16 -31 c-25
-47 -13 -60 37 -43 53 19 70 19 63 0 -9 -23 23 -65 61 -81 59 -24 197 -12 180
16 -3 6 1 7 9 4 22 -8 42 37 27 62 -9 17 -10 18 -11 2 0 -20 -20 -25 -21 -5 0
6 -4 2 -9 -10 -5 -13 -15 -23 -21 -23 -8 0 -8 -4 1 -15 15 -18 7 -30 -15 -21
-17 6 -36 48 -40 88 -2 19 3 28 19 33 19 6 19 7 -11 22 -38 19 -42 39 -12 48
11 4 18 9 16 12 -3 3 -14 0 -23 -5 -13 -7 -26 -6 -46 4 -29 15 -40 38 -13 28
8 -4 15 -3 15 0 0 3 -49 31 -110 61 -60 30 -110 52 -110 47 0 -4 41 -28 91
-52 49 -25 85 -46 79 -48 -7 -3 -8 -8 -1 -16 7 -8 1 -17 -20 -31 -37 -25 -36
-32 1 -42 l31 -8 -23 -31 c-20 -27 -25 -29 -36 -17 -7 7 -18 11 -24 7 -12 -8
-59 16 -52 27 2 4 0 11 -6 14 -7 4 -1 16 15 31 30 27 30 59 0 59 -13 0 -21 10
-28 35 -5 19 -17 44 -28 56 -10 11 -19 26 -19 32 0 7 -7 12 -15 12 -8 0 -15
-4 -15 -10 0 -15 -17 -12 -46 7 -18 11 -22 18 -13 24 8 4 -30 29 -100 64 -62
31 -115 54 -118 51 -3 -3 37 -26 89 -52 55 -27 98 -55 104 -68 9 -19 7 -21
-25 -24 -52 -4 -61 -19 -29 -45 36 -29 23 -56 -24 -51 -18 1 -36 3 -40 3 -4 1
-12 10 -19 22 -9 17 -7 25 10 43 23 24 28 75 9 77 -7 1 -29 3 -48 5 -34 2 -34
2 -12 -15 17 -12 20 -19 11 -28 -7 -7 -7 -13 0 -17 13 -9 3 -36 -14 -36 -7 0
-16 11 -19 25 -4 15 -14 25 -24 25 -10 0 -13 3 -6 8 30 21 43 122 15 122 -5 0
-7 10 -4 23 4 19 3 20 -7 5 -13 -22 -38 -23 -64 -3 -27 21 -46 18 -81 -11z
m63 5 c-2 -6 -8 -10 -13 -10 -5 0 -11 4 -13 10 -2 6 4 11 13 11 9 0 15 -5 13
-11z m55 -63 c6 -16 -2 -28 -14 -20 -12 7 -11 34 0 34 5 0 11 -6 14 -14z
m-203 -46 c0 -5 -4 -10 -10 -10 -5 0 -10 5 -10 10 0 6 5 10 10 10 6 0 10 -4
10 -10z m180 -30 c0 -5 -2 -10 -4 -10 -3 0 -8 5 -11 10 -3 6 -1 10 4 10 6 0
11 -4 11 -10z m280 -40 c0 -6 -7 -13 -15 -16 -20 -8 -48 3 -40 16 8 13 55 13
55 0z m-140 -80 c0 -5 -4 -10 -10 -10 -5 0 -10 5 -10 10 0 6 5 10 10 10 6 0
10 -4 10 -10z m267 -12 c-3 -8 -6 -5 -6 6 -1 11 2 17 5 13 3 -3 4 -12 1 -19z
m20 -30 c0 -13 2 -30 4 -38 2 -9 -2 -15 -11 -15 -9 0 -14 7 -12 18 2 11 -4 17
-17 17 -11 0 -23 5 -26 10 -4 6 7 10 24 10 17 0 31 5 31 10 0 6 2 10 4 10 2 0
4 -10 3 -22z m-197 -9 c0 -6 -4 -7 -10 -4 -5 3 -10 11 -10 16 0 6 5 7 10 4 6
-3 10 -11 10 -16z m360 -34 c0 -8 -4 -15 -9 -15 -13 0 -22 16 -14 24 11 11 23
6 23 -9z m64 -51 c3 -8 2 -12 -4 -9 -6 3 -10 10 -10 16 0 14 7 11 14 -7z
m-194 -24 c0 -5 -4 -10 -10 -10 -5 0 -10 5 -10 10 0 6 5 10 10 10 6 0 10 -4
10 -10z"/>
<path d="M3420 5330 c-55 -23 -162 -26 -218 -6 -47 17 -54 9 -40 -41 19 -71
161 -114 265 -79 67 22 85 43 77 87 -7 34 -21 60 -33 58 -3 -1 -26 -9 -51 -19z
m-50 -100 c12 -8 9 -10 -13 -10 -16 0 -26 4 -22 10 8 12 16 12 35 0z"/>
<path d="M4025 5300 c-18 -8 -17 -9 8 -9 16 -1 26 3 22 9 -3 6 -7 10 -8 9 -1
0 -11 -4 -22 -9z"/>
<path d="M3034 5251 c4 -5 -6 -18 -21 -29 -26 -19 -27 -21 -8 -27 11 -4 34
-13 52 -21 40 -18 48 -18 78 2 32 21 32 36 1 28 -14 -3 -36 1 -53 10 -23 13
-25 15 -8 16 20 1 20 1 1 15 -22 16 -50 20 -42 6z m52 -56 c17 -16 12 -18 -23
-9 -13 4 -23 10 -23 15 0 14 30 10 46 -6z"/>
<path d="M3737 5223 c-3 -5 8 -8 24 -8 16 0 29 3 29 8 0 4 -11 7 -24 7 -14 0
-27 -3 -29 -7z"/>
<path d="M3485 5201 c-3 -11 -10 -21 -15 -21 -13 0 -20 -30 -11 -48 7 -14 25
-18 78 -20 83 -4 132 11 113 33 -19 23 -3 31 20 10 15 -14 20 -15 20 -4 0 16
-19 49 -20 34 0 -5 -7 -2 -14 8 -13 17 -15 16 -21 -14 -6 -27 -10 -30 -19 -18
-8 10 -27 13 -65 11 -43 -3 -52 0 -48 11 3 8 2 20 -3 27 -6 9 -10 7 -15 -9z"/>
<path d="M3170 5181 c0 -5 -9 -11 -20 -14 -27 -7 -25 -25 4 -38 20 -9 29 -7
56 12 l32 24 -26 3 c-14 2 -26 8 -26 13 0 5 -4 9 -10 9 -5 0 -10 -4 -10 -9z"/>
<path d="M3320 5160 c0 -5 5 -10 10 -10 6 0 10 5 10 10 0 6 -4 10 -10 10 -5 0
-10 -4 -10 -10z"/>
<path d="M3735 5132 c-28 -23 -28 -25 -10 -38 25 -19 41 -18 25 1 -10 12 -10
15 4 15 9 0 16 7 16 16 0 12 6 15 26 10 15 -4 23 -3 20 2 -13 21 -53 18 -81
-6z"/>
<path d="M3830 5105 c0 -8 -10 -19 -21 -26 -17 -9 -19 -13 -8 -20 19 -12 29
-11 29 2 0 7 8 17 17 24 14 11 23 10 45 -1 16 -8 28 -19 28 -25 0 -16 -27 -21
-49 -9 -12 6 -21 7 -21 1 0 -21 68 -29 88 -9 19 19 15 26 -39 52 -58 30 -69
32 -69 11z"/>
<path d="M3453 5082 c-21 -2 -33 -9 -33 -18 0 -8 -6 -14 -14 -14 -9 0 -12 -7
-9 -20 3 -11 8 -20 12 -20 4 0 5 -18 3 -40 -4 -35 -1 -40 16 -40 12 0 24 -5
27 -10 5 -8 11 -8 19 -1 7 6 16 8 19 4 4 -3 14 0 23 8 16 13 17 11 12 -13 -3
-16 0 -29 7 -32 10 -3 10 4 3 32 -5 20 -10 48 -11 62 -2 28 -38 42 -75 28 -17
-6 -23 -5 -19 4 2 8 21 13 45 13 46 0 51 9 24 40 -12 14 -26 19 -49 17z m-9
-117 c-4 -8 -8 -15 -10 -15 -2 0 -4 7 -4 15 0 8 4 15 10 15 5 0 7 -7 4 -15z"/>
<path d="M4990 5070 c8 -5 20 -10 25 -10 6 0 3 5 -5 10 -8 5 -19 10 -25 10 -5
0 -3 -5 5 -10z"/>
<path d="M3240 5042 c-8 -1 -24 -15 -34 -29 l-19 -26 42 6 c47 6 61 14 45 25
-6 4 -13 12 -15 17 -2 6 -11 9 -19 7z"/>
<path d="M2750 5031 c0 -5 6 -12 13 -14 6 -3 2 -6 -10 -6 -32 -1 -53 -12 -53
-26 0 -13 21 -25 43 -25 6 0 2 7 -9 15 -18 14 -18 14 11 15 17 1 39 5 50 9 18
7 17 9 -13 25 -17 9 -32 12 -32 7z"/>
<path d="M3314 5005 c18 -14 18 -15 -5 -34 -29 -24 -9 -28 26 -5 31 21 31 28
0 42 -35 16 -44 15 -21 -3z"/>
<path d="M5060 5015 c0 -2 51 -30 113 -62 90 -46 120 -57 143 -52 l29 7 -28 1
c-15 0 -77 26 -137 56 -109 55 -120 59 -120 50z"/>
<path d="M2806 4963 c18 -14 16 -15 -16 -9 l-35 6 31 -16 c30 -16 33 -15 58 2
14 11 26 21 26 24 0 3 -19 6 -42 6 -39 1 -40 0 -22 -13z"/>
<path d="M4070 4963 c-14 -10 -49 -37 -78 -60 -55 -45 -72 -52 -72 -30 0 6
-37 30 -82 52 -103 51 -99 49 -92 32 4 -12 -3 -16 -28 -19 -29 -3 -34 -7 -38
-37 -4 -30 -7 -32 -18 -18 -8 9 -11 25 -7 37 4 14 2 20 -8 20 -9 0 -14 -9 -13
-22 1 -18 -5 -24 -26 -26 -23 -3 -28 1 -28 17 0 12 -7 21 -15 21 -12 0 -14 -4
-7 -16 9 -16 5 -64 -6 -64 -2 0 -10 7 -17 16 -10 14 -13 13 -29 -11 -10 -15
-13 -24 -7 -21 6 4 11 2 11 -4 0 -6 5 -8 10 -5 6 3 10 -1 10 -10 0 -15 1 -15
16 -1 17 18 30 20 38 8 10 -16 64 -12 89 8 14 11 35 20 47 20 17 0 21 4 15 18
-4 9 -8 23 -8 30 0 6 -4 12 -9 12 -4 0 -8 5 -8 10 0 6 23 10 50 10 28 0 50 -3
50 -7 0 -4 -12 -17 -27 -29 l-27 -21 26 -5 c17 -3 25 -1 22 6 -2 6 5 17 16 24
17 10 26 10 50 -3 17 -9 30 -20 30 -26 0 -17 -32 -23 -52 -10 -11 7 -22 10
-24 8 -8 -7 24 -28 45 -30 12 -1 21 -4 21 -7 0 -3 -155 -125 -345 -270 l-345
-265 0 -63 c0 -46 -4 -64 -15 -68 -8 -4 -15 -10 -15 -14 0 -7 321 -175 705
-369 77 -39 213 -108 303 -153 120 -61 166 -80 177 -73 26 19 409 318 653 512
208 166 247 193 277 193 18 0 37 5 41 12 10 15 -27 40 -48 33 -62 -19 -58 -22
-58 39 0 60 9 68 44 41 22 -17 36 -19 36 -6 0 5 -10 11 -22 15 -32 9 -8 23 54
31 26 4 48 10 48 14 0 9 -66 41 -83 41 -7 -1 2 -8 18 -17 l30 -17 -63 -14
c-58 -13 -68 -13 -103 3 l-39 18 35 31 c20 17 32 35 28 41 -11 15 -67 49 -59
36 5 -7 -2 -11 -16 -11 -13 -1 -36 -11 -52 -25 l-29 -23 -121 60 c-67 33 -125
67 -129 74 -4 8 -15 14 -23 14 -9 0 -14 6 -12 13 3 6 24 13 49 15 70 4 77 10
41 32 -42 26 -64 25 -32 0 l25 -20 -47 0 c-32 0 -50 -5 -56 -16 -7 -13 -37 -1
-203 81 l-193 97 36 19 c45 23 53 35 38 54 -16 20 -64 19 -81 -1 -11 -14 -10
-18 6 -30 14 -10 15 -14 4 -15 -8 -1 -18 0 -24 1 -5 1 -20 3 -31 5 -12 1 -61
23 -108 49 -47 25 -87 46 -89 46 -1 0 -14 -8 -27 -17z m330 -48 c0 -8 -9 -15
-20 -15 -20 0 -26 11 -13 23 12 13 33 7 33 -8z m-680 -45 c0 -5 -7 -7 -15 -4
-8 4 -15 8 -15 10 0 2 7 4 15 4 8 0 15 -4 15 -10z m1455 -349 c0 -8 -12 -23
-27 -34 -23 -17 -31 -19 -53 -9 l-26 12 28 25 c30 27 78 30 78 6z"/>
<path d="M3985 4960 c-3 -6 1 -7 9 -4 18 7 21 14 7 14 -6 0 -13 -4 -16 -10z"/>
<path d="M2880 4951 c0 -5 -10 -12 -22 -15 l-23 -6 24 -20 c29 -25 30 -25 66
6 27 23 28 25 8 21 -15 -4 -23 0 -23 9 0 8 -7 14 -15 14 -8 0 -15 -4 -15 -9z
m10 -31 c0 -5 -5 -10 -11 -10 -5 0 -7 5 -4 10 3 6 8 10 11 10 2 0 4 -4 4 -10z"/>
<path d="M5065 4930 c3 -5 8 -10 11 -10 2 0 4 5 4 10 0 6 -5 10 -11 10 -5 0
-7 -4 -4 -10z"/>
<path d="M2757 4903 c-3 -5 10 -8 29 -9 21 0 30 3 22 8 -16 10 -45 10 -51 1z"/>
<path d="M2970 4899 c0 -5 5 -7 10 -4 6 3 10 8 10 11 0 2 -4 4 -10 4 -5 0 -10
-5 -10 -11z"/>
<path d="M5050 4900 c0 -5 5 -10 11 -10 5 0 7 5 4 10 -3 6 -8 10 -11 10 -2 0
-4 -4 -4 -10z"/>
<path d="M5215 4890 c-51 -20 -58 -70 -10 -70 14 0 25 -3 25 -8 0 -19 -31 -50
-47 -47 -63 13 -73 17 -73 30 0 8 -4 15 -8 15 -11 0 -45 -71 -37 -78 4 -5 60
9 101 25 10 4 14 -3 14 -22 0 -15 4 -24 10 -20 5 3 7 0 4 -9 -9 -24 65 -56
131 -56 89 0 145 33 145 86 0 14 -2 14 -16 3 -13 -10 -17 -10 -24 1 -6 10 -9
9 -13 -6 -5 -17 -6 -17 -4 1 2 14 9 19 22 17 17 -4 17 -1 -5 21 -14 13 -31 26
-39 29 -14 4 -21 24 -23 66 -1 26 -6 27 -28 7 -14 -13 -21 -13 -55 5 -44 22
-42 22 -70 10z m45 -19 c0 -14 -29 -41 -44 -41 -23 0 -26 13 -9 32 17 19 53
25 53 9z m110 -81 c0 -5 -4 -10 -10 -10 -5 0 -10 5 -10 10 0 6 5 10 10 10 6 0
10 -4 10 -10z m-255 -30 c-3 -5 -11 -10 -16 -10 -6 0 -7 5 -4 10 3 6 11 10 16
10 6 0 7 -4 4 -10z m255 0 c0 -5 5 -9 12 -7 7 1 12 -12 12 -35 1 -45 -6 -48
-24 -10 -16 33 -20 62 -8 62 4 0 8 -4 8 -10z m-35 -20 c3 -6 -1 -7 -9 -4 -18
7 -21 14 -7 14 6 0 13 -4 16 -10z"/>
<path d="M4505 4870 c3 -5 10 -10 16 -10 5 0 9 5 9 10 0 6 -7 10 -16 10 -8 0
-12 -4 -9 -10z"/>
<path d="M3236 4862 c-3 -5 8 -6 25 -4 16 2 29 6 29 8 0 8 -49 4 -54 -4z"/>
<path d="M5380 4856 c0 -3 32 -22 71 -41 77 -39 87 -32 14 9 -49 27 -85 41
-85 32z"/>
<path d="M4511 4834 c-42 -18 -34 -31 9 -15 29 9 31 9 25 -9 -10 -31 13 -23
30 10 15 29 15 30 -7 30 -13 -1 -38 -7 -57 -16z"/>
<path d="M3017 4814 c-3 -3 -36 -7 -74 -9 -132 -8 -203 -17 -203 -26 0 -10
109 -7 200 6 25 3 57 5 73 5 15 0 27 4 27 9 0 12 -15 22 -23 15z"/>
<path d="M4628 4810 c12 -5 22 -14 22 -21 0 -7 -7 -8 -17 -4 -79 33 -87 -3 -9
-41 l54 -26 32 23 c37 28 25 37 -19 15 -32 -17 -51 -6 -26 14 14 11 14 15 -1
31 -10 11 -27 19 -38 18 -20 0 -20 -1 2 -9z m-11 -36 c-3 -3 -12 -4 -19 -1 -8
3 -5 6 6 6 11 1 17 -2 13 -5z"/>
<path d="M3087 4773 c-14 -13 -6 -23 17 -23 19 0 25 -6 28 -27 4 -38 38 -45
38 -8 0 42 -17 65 -49 65 -15 0 -31 -3 -34 -7z"/>
<path d="M3311 4753 c-41 -15 -43 -17 -26 -29 26 -20 52 -19 35 0 -9 12 -5 16
24 22 38 7 60 25 29 23 -10 0 -38 -8 -62 -16z"/>
<path d="M5569 4757 c8 -11 28 -17 54 -17 45 0 46 8 1 14 -16 2 -38 7 -49 12
-18 7 -18 6 -6 -9z"/>
<path d="M3523 4752 c-29 -2 -53 -5 -53 -7 0 -2 5 -16 12 -32 13 -31 15 -39
17 -66 1 -10 6 -15 12 -11 6 3 8 17 5 30 -6 22 -4 24 34 24 38 0 40 1 37 30
-2 17 -6 31 -8 33 -2 1 -28 1 -56 -1z"/>
<path d="M2620 4727 c0 -21 33 -219 45 -274 4 -19 12 -23 40 -23 37 0 48 18
16 27 -14 3 -21 20 -29 61 -6 32 -10 64 -11 72 0 8 -4 33 -10 55 -15 57 -14
85 4 85 8 0 15 5 15 10 0 6 -16 10 -35 10 -30 0 -35 -3 -35 -23z"/>
<path d="M3380 4730 c-24 -20 -25 -21 -6 -35 25 -19 36 -19 64 4 27 24 28 35
2 28 -13 -3 -20 0 -20 9 0 19 -10 17 -40 -6z"/>
<path d="M5527 4720 c-14 -11 -30 -20 -36 -20 -6 0 -11 -9 -11 -20 0 -15 -7
-20 -26 -20 -17 0 -28 -6 -31 -20 -3 -10 -14 -22 -24 -25 -26 -9 -24 -23 6
-37 21 -9 29 -7 59 18 19 16 35 34 35 40 1 13 24 24 49 24 11 0 7 -9 -16 -33
-65 -67 -25 -125 94 -142 34 -4 54 -3 59 4 3 6 10 9 14 7 17 -11 7 31 -15 63
-23 34 -23 35 -4 48 25 17 26 50 3 75 -14 16 -15 23 -5 39 16 25 0 25 -23 -1
l-18 -20 -34 20 c-42 25 -44 25 -76 0z m53 -10 c0 -11 -42 -31 -49 -24 -2 2 2
10 9 19 14 17 40 20 40 5z m80 -30 c0 -5 -2 -10 -4 -10 -3 0 -8 5 -11 10 -3 6
-1 10 4 10 6 0 11 -4 11 -10z m-180 -44 c0 -17 -27 -29 -35 -16 -4 6 -3 15 0
20 9 15 35 12 35 -4z m160 -2 c0 -8 -4 -12 -10 -9 -5 3 -10 10 -10 16 0 5 5 9
10 9 6 0 10 -7 10 -16z m16 -66 c5 -8 2 -9 -9 -5 -10 4 -17 1 -17 -5 0 -6 -3
-9 -6 -5 -7 7 4 27 16 27 5 0 12 -5 16 -12z"/>
<path d="M2274 4707 c-31 -27 -25 -47 14 -47 27 1 72 30 72 48 0 11 -23 22
-45 22 -8 0 -26 -11 -41 -23z m46 -12 c-7 -8 -17 -15 -22 -15 -6 0 -5 7 2 15
7 8 17 15 22 15 6 0 5 -7 -2 -15z"/>
<path d="M5690 4702 c0 -16 230 -122 263 -121 l32 1 -35 7 c-19 4 -86 33 -147
64 -62 32 -113 54 -113 49z"/>
<path d="M2352 4672 c-26 -22 -30 -30 -20 -40 19 -19 50 -14 83 12 39 31 26
45 -15 16 -38 -27 -51 -20 -16 8 14 10 22 22 19 26 -10 10 -16 7 -51 -22z"/>
<path d="M3165 4680 c-3 -5 -25 -12 -49 -15 -36 -6 -43 -10 -39 -26 5 -16 7
-16 20 -4 8 8 29 15 46 16 18 1 42 4 54 7 l22 7 -24 12 c-14 6 -27 7 -30 3z"/>
<path d="M3235 4660 c3 -5 8 -10 11 -10 2 0 4 5 4 10 0 6 -5 10 -11 10 -5 0
-7 -4 -4 -10z"/>
<path d="M3361 4660 c0 -8 4 -22 9 -30 12 -18 12 -2 0 25 -6 13 -9 15 -9 5z"/>
<path d="M3408 4660 c12 -5 27 -20 33 -32 9 -22 9 -22 4 2 -2 14 -5 28 -5 33
0 4 -12 7 -27 6 -27 0 -27 -1 -5 -9z"/>
<path d="M3580 4655 c0 -8 7 -15 15 -15 8 0 15 7 15 15 0 8 -7 15 -15 15 -8 0
-15 -7 -15 -15z"/>
<path d="M4952 4650 c-41 -10 -57 -24 -49 -44 8 -21 53 -31 83 -17 23 10 34
41 14 41 -17 0 -11 18 8 23 32 9 -20 6 -56 -3z m27 -19 c19 -12 5 -31 -24 -31
-31 0 -40 16 -18 29 22 13 25 13 42 2z"/>
<path d="M2162 4634 c-32 -22 -29 -60 8 -79 56 -29 150 -7 150 35 0 49 -107
80 -158 44z"/>
<path d="M2416 4627 c-17 -14 -25 -26 -19 -30 6 -4 22 2 36 13 35 28 54 25 21
-3 -15 -13 -23 -27 -17 -30 14 -9 78 47 69 61 -12 20 -59 13 -90 -11z"/>
<path d="M5723 4608 c5 -17 3 -28 -6 -31 -9 -4 -8 -8 3 -16 8 -6 11 -11 6 -11
-14 0 15 -30 30 -30 20 0 43 52 26 58 -7 2 -10 8 -6 13 3 5 0 9 -7 9 -7 0 -21
8 -32 18 -19 17 -20 16 -14 -10z"/>
<path d="M2530 4605 c10 -12 10 -15 -3 -15 -9 0 -28 -5 -44 -11 l-28 -11 25
-13 c34 -19 56 -20 41 -2 -9 11 -2 16 31 26 40 12 41 14 23 27 -10 8 -28 14
-38 14 -16 0 -17 -3 -7 -15z"/>
<path d="M5010 4591 c-20 -16 -22 -22 -11 -35 22 -26 49 -29 79 -8 15 10 34
17 42 15 8 -2 7 1 -4 8 -15 9 -24 8 -46 -5 -50 -29 -70 -11 -27 25 30 25 1 25
-33 0z"/>
<path d="M2326 4556 c-44 -41 -40 -58 22 -90 l46 -23 48 35 c26 20 48 39 48
42 0 6 -113 70 -123 70 -3 0 -22 -15 -41 -34z"/>
<path d="M2050 4538 l-53 -41 67 -34 67 -34 29 23 c54 43 49 73 -20 108 l-36
18 -54 -40z"/>
<path d="M5860 4565 c-14 -8 -33 -18 -42 -21 -10 -3 -18 -15 -18 -25 0 -14 -7
-19 -25 -19 -14 0 -25 -4 -25 -10 0 -5 11 -10 25 -10 14 0 25 -4 25 -10 0 -5
5 -10 10 -10 6 0 10 7 10 15 0 8 8 15 18 15 10 0 23 5 30 12 9 9 12 8 13 -5 5
-60 3 -80 -8 -84 -7 -3 -13 -14 -13 -25 0 -32 -30 -2 -31 31 -2 23 -2 23 -6 4
-11 -57 49 -96 150 -97 57 -1 71 2 83 18 8 11 14 16 14 11 0 -4 9 0 20 10 28
26 23 69 -8 73 -14 2 -28 14 -34 30 -7 15 -18 34 -25 43 -8 9 -15 26 -16 38
-1 19 -2 19 -19 4 -19 -17 -19 -17 -98 24 -3 2 -16 -4 -30 -12z m40 -15 c0 -9
-31 -30 -44 -30 -12 0 -6 28 7 33 20 9 37 8 37 -3z m65 -60 c3 -5 1 -10 -4
-10 -6 0 -11 5 -11 10 0 6 2 10 4 10 3 0 8 -4 11 -10z m83 -116 c-10 -10 -28
6 -28 24 0 15 1 15 17 -1 9 -9 14 -19 11 -23z"/>
<path d="M3169 4543 c-1 -5 0 -20 1 -35 1 -22 -3 -28 -19 -28 -12 0 -21 -4
-21 -10 0 -5 18 -10 40 -10 35 0 40 3 40 23 0 38 -12 67 -26 67 -8 0 -14 -3
-15 -7z"/>
<path d="M6020 4535 c0 -3 37 -23 82 -46 46 -23 76 -34 69 -25 -8 9 -42 30
-76 46 -63 30 -75 34 -75 25z"/>
<path d="M3069 4516 c-2 -2 -59 -6 -126 -10 -67 -3 -129 -9 -137 -12 -30 -11
-16 -21 28 -20 26 1 42 5 38 11 -3 6 2 4 11 -4 9 -7 17 -9 17 -4 0 5 26 9 58
10 31 1 62 2 67 3 25 6 65 -1 65 -11 0 -5 -5 -7 -11 -3 -8 4 -8 0 0 -15 17
-30 33 -26 25 7 -7 27 -27 56 -35 48z"/>
<path d="M5214 4475 c11 -8 25 -15 30 -15 6 0 2 7 -8 15 -11 8 -25 15 -30 15
-6 0 -2 -7 8 -15z"/>
<path d="M2195 4456 c-21 -21 -24 -29 -15 -46 15 -28 42 -40 94 -40 47 0 86
24 86 53 0 26 -40 50 -89 55 -43 4 -53 1 -76 -22z"/>
<path d="M1825 4460 c-3 -5 -2 -10 4 -10 5 0 13 5 16 10 3 6 2 10 -4 10 -5 0
-13 -4 -16 -10z"/>
<path d="M5745 4454 c-11 -8 -28 -13 -37 -10 -31 7 -20 -10 17 -27 19 -9 35
-12 35 -7 0 6 -6 10 -12 10 -7 1 -3 9 10 19 36 31 25 44 -13 15z"/>
<path d="M6214 4434 c21 -12 34 -13 50 -6 20 9 20 10 -4 9 -14 -1 -36 2 -50 6
-23 7 -22 6 4 -9z"/>
<path d="M6204 4401 c4 -5 -12 -12 -34 -16 -22 -4 -43 -11 -46 -16 -9 -15 16
-39 40 -39 19 1 19 2 4 11 -27 15 -21 29 12 29 35 0 37 -6 10 -40 -11 -14 -20
-37 -20 -52 0 -15 -5 -30 -11 -34 -8 -5 -10 1 -7 19 3 15 1 24 -3 21 -5 -3 -9
-14 -9 -25 0 -58 56 -93 150 -93 65 0 94 10 125 40 13 14 14 19 3 25 -10 7
-10 9 0 9 27 0 8 30 -70 108 -12 12 -19 22 -15 22 4 0 57 -25 117 -55 60 -30
115 -55 122 -54 7 0 -43 29 -112 63 -69 35 -128 62 -132 59 -4 -2 -5 3 -2 11
8 20 -5 20 -27 0 -16 -14 -20 -14 -48 0 -33 18 -55 21 -47 7z m162 -162 c1
-17 -3 -26 -10 -23 -16 6 -36 53 -29 69 8 22 38 -12 39 -46z m-105 18 c-16
-16 -25 -1 -10 16 8 8 16 11 18 5 2 -5 -2 -15 -8 -21z m39 18 c0 -8 -2 -15 -4
-15 -2 0 -6 7 -10 15 -3 8 -1 15 4 15 6 0 10 -7 10 -15z"/>
<path d="M1870 4328 c-30 -23 -93 -71 -138 -106 l-84 -64 129 -67 c70 -37 360
-186 643 -331 283 -144 569 -291 635 -325 66 -34 226 -116 355 -183 476 -243
2027 -1042 2677 -1378 238 -123 440 -224 449 -224 9 0 55 33 103 73 48 39 105
86 127 104 38 31 39 32 19 47 -11 9 -66 39 -122 68 -98 51 -103 52 -116 34
-10 -14 -21 -17 -40 -12 -31 7 -33 4 -11 -29 9 -14 14 -31 11 -39 -8 -20 -47
-8 -47 15 0 10 -5 21 -10 24 -14 9 -42 -14 -33 -28 3 -5 1 -7 -5 -3 -6 3 -17
-1 -26 -9 -14 -14 -14 -18 2 -35 9 -11 27 -20 40 -20 13 0 35 -6 50 -14 15 -7
44 -16 64 -20 32 -6 39 -4 54 19 9 14 27 28 40 31 30 8 23 20 -24 42 -24 11
-38 25 -40 40 -2 12 0 22 5 22 18 0 178 -96 178 -107 0 -16 -202 -183 -221
-183 -22 0 -274 133 -274 144 0 16 52 66 69 66 12 0 12 3 3 12 -9 9 -6 18 15
40 31 32 20 37 -17 8 -33 -26 -49 -25 -85 4 -25 21 -28 28 -19 43 12 18 35 21
67 8 25 -11 23 36 -3 60 -11 10 -20 15 -20 11 0 -11 -25 17 -32 36 -4 9 -4 19
-1 22 7 6 163 -74 163 -84 0 -4 -9 -15 -20 -25 -11 -10 -20 -23 -20 -29 0 -6
5 -5 12 2 19 19 28 14 28 -13 0 -14 4 -25 9 -25 10 0 90 62 90 70 1 9 -148 80
-166 80 -9 0 -13 3 -10 6 10 10 -102 66 -114 58 -6 -4 -15 0 -20 7 -4 7 -11
10 -15 7 -3 -4 1 -14 10 -23 20 -20 21 -41 2 -48 -9 -4 -16 3 -20 18 -9 37
-36 40 -43 5 -3 -17 -12 -30 -19 -30 -7 0 -21 -11 -30 -25 -9 -14 -22 -25 -30
-25 -14 0 -14 -66 0 -89 15 -23 81 -42 138 -39 31 2 60 0 64 -5 8 -8 -44 -67
-60 -67 -5 0 -143 69 -306 154 -163 84 -363 188 -445 231 -83 43 -233 120
-335 172 -270 138 -407 210 -877 457 -111 58 -205 106 -208 106 -3 0 -17 7
-30 16 l-24 16 32 27 c37 32 100 54 78 27 -9 -10 -11 -28 -7 -49 5 -26 15 -37
43 -51 47 -23 134 -32 159 -18 16 10 13 12 -21 12 -44 2 -75 6 -81 13 -9 9 9
37 20 30 19 -12 40 -12 55 0 8 7 15 10 15 8 3 -14 45 14 50 34 4 14 11 25 16
25 17 0 11 -25 -11 -48 -11 -12 -17 -27 -14 -32 3 -6 1 -10 -6 -10 -7 0 -3 -9
9 -20 29 -27 28 -35 -8 -62 -22 -16 -27 -24 -18 -30 20 -12 38 -9 33 5 -6 18
39 47 63 40 17 -4 20 -10 15 -35 -14 -72 133 -142 187 -88 22 22 26 40 10 40
-5 0 -9 16 -7 35 2 33 27 52 27 20 0 -8 6 -15 13 -16 6 0 4 -3 -5 -7 -16 -6
-16 -10 -3 -35 7 -15 11 -27 8 -27 -3 0 5 -8 17 -18 l23 -18 -37 -31 c-36 -30
-37 -30 -14 -37 35 -9 42 -7 29 8 -10 11 -7 17 11 30 12 9 34 16 48 16 22 1
20 4 -17 23 -39 20 -41 23 -24 34 27 17 35 60 16 90 -10 14 -22 22 -31 19 -7
-3 -13 -2 -12 2 2 4 -10 20 -25 36 -15 16 -27 35 -27 42 0 16 -16 18 -25 4 -4
-6 -16 -8 -28 -5 -20 5 -20 5 -5 -8 19 -15 35 -67 21 -67 -14 0 -53 44 -53 61
0 8 -7 1 -15 -15 -19 -36 -19 -46 1 -46 14 0 14 -3 4 -15 -26 -31 -63 -8 -38
23 12 16 11 16 -11 1 -23 -14 -28 -14 -68 9 l-44 24 20 22 c34 36 27 65 -29
116 -27 25 -50 53 -50 61 0 8 3 10 8 4 4 -6 55 -35 114 -65 60 -30 106 -59
105 -65 -2 -5 -27 -16 -55 -24 -29 -8 -52 -17 -52 -21 0 -8 46 -30 63 -30 7 0
3 7 -7 15 -19 14 -19 15 0 20 10 3 32 13 47 21 41 20 84 18 99 -5 7 -11 53
-41 104 -67 92 -48 92 -48 76 -71 -10 -12 -25 -25 -34 -28 -22 -8 -23 -31 -2
-39 31 -12 63 -6 74 14 9 16 8 20 -5 20 -8 0 -15 7 -15 16 0 12 6 15 21 11 12
-3 35 -3 51 0 27 5 20 10 -81 64 -61 32 -199 103 -307 158 -180 91 -199 99
-217 86 -12 -9 -31 -12 -45 -8 -18 4 -23 2 -20 -8 3 -8 12 -13 22 -11 13 2 16
-6 16 -38 0 -37 -2 -40 -15 -26 -8 8 -12 21 -9 29 3 10 -3 16 -20 19 -14 3
-26 1 -26 -3 0 -5 -13 -15 -30 -24 -16 -9 -30 -11 -30 -6 0 5 7 11 15 15 25 9
17 29 -10 24 -19 -4 -25 -1 -23 11 3 17 -3 17 -37 5 -16 -6 -18 -5 -7 7 19 21
14 54 -13 83 -13 14 -28 26 -32 26 -5 0 -9 -36 -9 -80 0 -57 4 -80 13 -80 6 0
15 5 18 10 10 16 28 11 21 -6 -5 -13 -1 -15 21 -9 27 6 27 6 10 -12 -12 -12
-33 -18 -74 -18 -40 -1 -59 -6 -67 -17 -9 -14 -26 -8 -138 50 l-128 67 23 23
c12 12 36 26 53 31 29 8 31 7 26 -16 -2 -13 1 -35 8 -48 13 -24 74 -55 110
-55 36 0 21 20 -24 31 -35 9 -43 14 -39 29 4 14 -2 21 -21 26 -36 9 -32 31 9
55 19 12 35 25 35 30 0 5 -11 2 -25 -7 -14 -9 -25 -12 -25 -6 0 6 5 14 10 17
17 10 0 26 -21 20 -13 -4 -19 -2 -19 9 0 19 -21 21 -39 4 -12 -11 -13 -9 -6 7
15 37 8 69 -21 90 -42 30 -74 66 -74 83 0 13 4 12 19 -4 10 -10 55 -37 99 -59
45 -22 82 -45 82 -52 0 -6 -9 -19 -21 -27 -25 -17 -17 -36 14 -36 18 0 19 2 7
10 -12 8 -11 10 7 10 15 0 21 5 17 14 -4 9 2 16 16 18 11 2 21 7 21 12 1 5
-56 38 -125 74 -124 63 -127 64 -152 47 -22 -14 -25 -23 -22 -61 2 -24 1 -44
-2 -44 -12 0 -30 42 -23 53 4 7 0 7 -10 -2 -18 -14 -24 -36 -7 -26 6 3 10 1
10 -4 0 -6 -4 -11 -8 -11 -16 0 -30 23 -25 39 3 9 1 12 -4 6 -9 -12 -50 -35
-60 -35 -3 0 4 11 16 24 25 26 11 41 -22 24 -15 -8 -18 -6 -15 9 2 14 -3 17
-20 16 -20 -3 -21 0 -12 17 12 22 8 33 -23 68 -13 14 -28 20 -41 17 -12 -3
-15 -2 -8 1 19 9 -15 44 -35 37 -13 -5 -14 -3 -3 17 7 12 15 18 19 13 3 -5 56
-36 116 -69 108 -58 109 -59 75 -64 -22 -3 -36 -11 -38 -22 -4 -20 35 -35 51
-19 8 8 5 11 -12 11 -12 0 -19 4 -16 10 3 6 17 10 30 10 13 0 27 5 30 11 4 6
20 8 38 4 18 -3 -38 30 -123 73 -155 79 -155 79 -179 61 -17 -14 -28 -16 -41
-9 -27 14 -34 12 -20 -5 7 -8 16 -12 21 -9 9 5 12 -14 12 -74 0 -31 2 -33 25
-29 34 7 52 -14 55 -62 2 -43 7 -47 38 -31 15 9 19 7 19 -5 0 -12 6 -15 23
-10 21 7 21 6 5 -11 -13 -13 -33 -18 -71 -19 -30 0 -61 -6 -70 -13 -13 -11
-34 -3 -136 48 -67 33 -121 64 -121 69 0 13 55 51 73 51 20 0 69 62 58 73 -5
5 -19 3 -32 -3 -20 -10 -22 -10 -11 1 20 21 14 32 -14 25 -22 -6 -24 -4 -16
11 4 10 8 23 8 29 -1 13 -64 74 -77 74 -5 0 -9 5 -9 12 0 6 -8 20 -17 31 -22
24 -22 24 93 -35 112 -58 125 -71 90 -93 -28 -19 -26 -35 5 -35 12 0 17 4 14
11 -10 15 25 37 49 32 17 -4 18 -3 6 6 -13 9 -13 11 0 11 8 0 10 3 5 9 -6 5
-158 84 -340 177 -181 92 -465 237 -630 321 -165 84 -307 155 -315 158 -8 2
-40 -14 -70 -37z m80 12 c-12 -7 -8 -10 14 -10 25 0 27 -2 15 -16 -9 -11 -22
-14 -41 -10 -21 4 -28 2 -28 -9 0 -8 -5 -15 -11 -15 -5 0 -8 -4 -5 -9 6 -9
-20 -67 -34 -76 -10 -6 -1 35 13 55 6 8 -6 -1 -27 -22 -32 -29 -37 -41 -32
-62 10 -39 65 -75 124 -82 48 -5 52 -4 52 15 0 12 -5 21 -11 21 -6 0 -9 -7 -5
-15 6 -17 -2 -19 -23 -6 -11 7 -10 12 5 28 17 17 24 18 57 9 29 -9 35 -14 25
-24 -9 -9 -9 -12 3 -12 17 0 28 8 54 39 11 14 14 21 8 17 -9 -5 -13 2 -13 23
0 21 -11 43 -36 71 -20 22 -32 40 -28 39 19 -1 198 -98 182 -98 -27 -1 -72
-45 -65 -64 7 -18 67 -24 67 -7 0 5 -9 9 -19 7 -30 -3 -28 15 4 38 20 14 29
16 32 8 3 -10 10 -10 24 -2 14 7 25 6 40 -5 21 -14 21 -14 1 -25 -16 -8 -19
-18 -15 -47 3 -20 -1 -47 -8 -60 -14 -28 -13 -29 24 -38 26 -6 27 -5 18 13
-14 26 -14 27 8 28 22 2 44 -47 34 -72 -3 -9 4 -23 17 -33 l22 -18 -36 -24
c-43 -30 -44 -36 -8 -43 31 -6 43 0 23 12 -20 13 33 51 61 43 31 -8 15 13 -21
28 l-30 12 25 24 c13 14 24 30 24 35 0 23 -35 69 -62 80 -15 6 -28 15 -28 20
0 5 -7 9 -15 9 -8 0 -15 3 -15 8 0 12 20 38 20 27 0 -6 40 -31 90 -55 49 -24
92 -51 95 -59 4 -9 -6 -24 -25 -39 -34 -27 -31 -42 8 -42 21 0 24 2 12 10 -13
8 -13 11 2 27 25 24 99 19 143 -11 19 -13 68 -41 109 -62 40 -21 79 -46 85
-56 10 -16 8 -18 -17 -18 -15 0 -37 -7 -48 -15 -19 -15 -19 -15 0 -30 23 -17
46 -20 46 -5 0 5 -5 9 -11 7 -6 -1 -14 4 -16 11 -3 7 3 12 14 12 10 0 31 7 46
15 16 8 38 13 50 11 12 -3 29 -5 37 -5 10 -1 8 -6 -8 -17 -12 -8 -22 -20 -22
-26 0 -6 -7 -20 -17 -30 -15 -17 -15 -18 0 -18 10 0 17 -7 17 -15 0 -21 -13
-19 -30 5 -14 20 -37 29 -25 10 3 -5 -6 -12 -20 -16 -25 -6 -30 -20 -19 -60 7
-27 51 -28 60 -1 3 11 13 17 24 15 11 -2 25 5 32 14 12 17 15 16 43 -6 17 -13
26 -28 22 -32 -4 -5 -12 -2 -17 6 -8 12 -10 11 -10 -6 0 -20 21 -47 31 -41 2
1 -2 -4 -10 -10 -20 -17 -7 -27 17 -14 25 13 35 14 27 2 -9 -16 15 -24 30 -11
8 7 15 8 15 3 0 -15 -22 -32 -35 -27 -7 3 -16 1 -20 -5 -4 -7 -21 -9 -44 -5
-27 4 -42 2 -52 -9 -14 -15 -132 42 -754 363 -82 43 -223 114 -312 159 -90 45
-163 86 -163 90 0 5 32 33 72 63 40 29 92 70 116 91 24 20 49 37 55 37 7 0 6
-4 -3 -10z m10 -60 c0 -5 -2 -10 -4 -10 -3 0 -8 5 -11 10 -3 6 -1 10 4 10 6 0
11 -4 11 -10z m-40 -82 c0 -6 -7 -5 -15 2 -8 7 -15 17 -15 22 0 6 7 5 15 -2 8
-7 15 -17 15 -22z m-55 -28 c8 -13 -15 -13 -35 0 -12 8 -11 10 7 10 12 0 25
-4 28 -10z m79 -13 c3 3 6 -1 6 -9 0 -18 -47 -31 -53 -14 -8 22 4 36 23 26 9
-5 20 -6 24 -3z m83 -9 c-3 -8 -6 -5 -6 6 -1 11 2 17 5 13 3 -3 4 -12 1 -19z
m363 -113 c11 -18 20 -36 20 -40 0 -10 -47 40 -60 65 -18 34 17 12 40 -25z
m547 -247 c-3 -8 -6 -5 -6 6 -1 11 2 17 5 13 3 -3 4 -12 1 -19z m60 -70 c-3
-7 -5 -2 -5 12 0 14 2 19 5 13 2 -7 2 -19 0 -25z m340 -172 c-7 -17 -37 -11
-37 6 0 6 7 8 15 4 8 -3 15 0 15 6 0 6 3 9 6 5 4 -3 4 -13 1 -21z m-343 -17
c-7 -11 -34 -12 -34 -1 0 14 11 21 26 15 8 -3 11 -9 8 -14z m600 -67 c3 -5 -1
-9 -9 -9 -8 0 -15 4 -15 9 0 4 4 8 9 8 6 0 12 -4 15 -8z m-110 -55 c-3 -8 2
-19 10 -26 18 -15 76 -32 76 -22 0 4 7 8 15 8 10 0 14 -6 10 -15 -4 -12 -1
-12 19 2 24 15 26 15 35 -2 14 -27 2 -72 -20 -72 -11 0 -19 3 -19 8 0 8 -49
32 -67 32 -24 0 -13 -21 18 -34 18 -7 26 -15 19 -18 -7 -2 10 -3 38 -2 28 0
59 7 69 15 15 12 16 12 11 -3 -9 -22 1 -29 25 -17 14 8 18 8 12 -1 -12 -19
-58 -34 -102 -31 -30 2 -44 -2 -51 -14 -8 -15 -24 -10 -141 50 l-132 67 37 29
c20 16 40 29 45 29 4 0 15 3 23 6 12 5 15 2 10 -12 -5 -14 0 -12 22 9 31 29
46 35 38 14z m-164 -37 c0 -5 -9 -10 -20 -10 -11 0 -20 5 -20 10 0 6 9 10 20
10 11 0 20 -4 20 -10z m255 -70 c3 -5 2 -10 -4 -10 -5 0 -13 5 -16 10 -3 6 -2
10 4 10 5 0 13 -4 16 -10z m64 -89 c9 -6 10 -11 2 -15 -13 -8 -31 1 -31 15 0
11 11 11 29 0z m141 -41 c0 -5 -2 -10 -4 -10 -3 0 -8 5 -11 10 -3 6 -1 10 4
10 6 0 11 -4 11 -10z m370 -90 c0 -5 -10 -10 -22 -10 -19 0 -20 2 -8 10 19 13
30 13 30 0z m-180 -38 c0 -14 -11 -21 -26 -15 -21 8 -17 23 6 23 11 0 20 -4
20 -8z m172 -15 c9 -3 19 -1 22 6 3 9 5 8 5 -1 1 -7 -6 -15 -14 -18 -17 -7
-45 12 -45 30 0 8 3 8 8 0 4 -6 15 -13 24 -17z m5 -33 c-3 -3 -12 -4 -19 -1
-8 3 -5 6 6 6 11 1 17 -2 13 -5z m493 -114 c0 -5 -4 -10 -10 -10 -5 0 -10 5
-10 10 0 6 5 10 10 10 6 0 10 -4 10 -10z m120 -70 c0 -5 -7 -10 -15 -10 -8 0
-15 5 -15 10 0 6 7 10 15 10 8 0 15 -4 15 -10z m1390 -780 c-8 -5 -24 -9 -35
-9 -16 1 -16 2 5 9 35 11 48 11 30 0z m308 -22 c-6 -18 -28 -21 -28 -4 0 9 7
16 16 16 9 0 14 -5 12 -12z m-290 -27 c20 -28 20 -29 1 -24 -21 6 -42 36 -32
47 9 8 7 10 31 -23z m120 -103 c-3 -7 -11 -13 -18 -13 -7 0 -15 6 -17 13 -3 7
4 12 17 12 13 0 20 -5 18 -12z m-38 -33 c0 -9 -6 -12 -15 -9 -8 4 -15 10 -15
15 0 5 7 9 15 9 8 0 15 -7 15 -15z"/>
<path d="M2068 4081 c10 -6 3 -15 -24 -36 l-38 -29 29 -8 c32 -8 47 -2 26 11
-20 13 32 45 59 36 29 -9 25 10 -5 23 -31 14 -68 17 -47 3z"/>
<path d="M2187 4070 c-10 -14 -16 -17 -19 -9 -3 10 -6 10 -12 1 -4 -7 -2 -12
3 -12 15 0 14 -33 -1 -48 -9 -9 -8 -12 6 -12 9 0 15 4 12 9 -3 4 3 25 14 46
22 43 20 58 -3 25z"/>
<path d="M2213 4053 c-7 -2 -13 -17 -13 -31 1 -23 2 -25 11 -9 5 9 19 17 29
17 24 0 26 15 4 24 -9 3 -16 6 -17 5 -1 0 -8 -3 -14 -6z"/>
<path d="M2137 4033 c-10 -9 -9 -23 1 -23 5 0 9 7 9 15 0 17 -1 18 -10 8z"/>
<path d="M2550 3985 c0 -5 62 -35 73 -35 1 0 3 9 4 20 2 17 -1 18 -18 10 -13
-8 -25 -7 -39 0 -11 6 -20 8 -20 5z"/>
<path d="M2520 3933 c0 -3 8 -15 17 -25 16 -17 15 -18 -8 -14 -13 3 -28 5 -32
5 -5 1 -5 7 -1 14 4 6 -5 1 -19 -12 -37 -34 -36 -72 4 -105 32 -27 56 -35 43
-14 -10 16 -16 103 -6 93 4 -3 7 -10 7 -13 0 -13 16 -32 27 -32 6 0 6 6 -2 15
-11 14 -10 14 12 6 14 -5 29 -7 32 -4 3 4 6 1 6 -5 0 -7 8 -12 18 -12 13 0 14
2 4 9 -11 6 -9 9 7 14 12 3 33 -4 52 -19 30 -22 31 -24 11 -24 -20 0 -21 -2
-10 -22 7 -13 17 -26 22 -30 9 -6 -41 -57 -59 -58 -16 -2 28 -19 50 -19 19 0
19 0 2 10 -17 10 -16 12 8 30 16 13 32 18 45 14 33 -11 22 10 -15 28 l-35 16
25 25 c14 14 25 30 25 37 0 14 -32 69 -41 69 -16 0 -17 -30 -1 -39 10 -6 12
-11 5 -11 -7 0 -13 -8 -13 -17 -1 -17 -1 -17 -11 0 -5 9 -7 22 -4 27 3 6 -1 7
-9 4 -9 -3 -16 -1 -16 4 0 6 8 12 18 15 14 3 13 6 -8 15 -22 9 -23 11 -5 12
l20 1 -20 8 c-11 5 -28 5 -37 0 -11 -6 -18 -5 -21 4 -2 6 -8 9 -12 5 -4 -4 -2
-14 4 -22 15 -18 8 -32 -17 -38 -16 -5 -19 0 -16 30 2 27 0 32 -7 22 -8 -12
-12 -12 -16 -2 -5 13 -23 17 -23 5z"/>
<path d="M2796 3739 c-37 -29 -35 -72 6 -111 19 -18 39 -28 50 -25 10 3 18 0
18 -6 0 -6 3 -7 6 -4 11 11 -17 37 -38 37 -11 0 -22 8 -25 19 -3 11 -11 22
-19 25 -8 3 -14 12 -14 20 0 19 49 58 63 49 6 -3 7 -1 3 5 -10 17 -20 15 -50
-9z"/>
<path d="M2795 3690 c-3 -5 -1 -10 4 -10 6 0 11 5 11 10 0 6 -2 10 -4 10 -3 0
-8 -4 -11 -10z"/>
<path d="M2887 3643 c-4 -3 -7 -11 -7 -17 0 -6 5 -5 12 2 6 6 9 14 7 17 -3 3
-9 2 -12 -2z"/>
<path d="M2939 3638 c-1 -7 -1 -19 0 -26 2 -10 -2 -11 -18 -2 -17 9 -21 8 -21
-5 0 -10 10 -15 30 -15 30 0 43 23 18 33 -8 3 -6 6 5 6 9 1 17 6 17 11 0 15
-30 12 -31 -2z"/>
<path d="M3460 3369 c0 -5 -4 -8 -9 -4 -5 3 -12 1 -16 -5 -4 -6 -11 -8 -16 -5
-5 4 -9 -1 -9 -10 0 -23 47 -63 89 -75 56 -15 69 -12 36 10 -16 11 -38 19 -47
16 -12 -3 -15 1 -11 12 5 11 3 13 -7 7 -10 -6 -11 0 -6 29 4 20 4 36 1 36 -3
0 -5 -5 -5 -11z"/>
<path d="M3483 3370 c2 -8 12 -16 23 -17 13 -2 15 -1 4 4 -8 3 -19 11 -23 17
-6 7 -7 6 -4 -4z"/>
<path d="M3530 3339 c0 -5 5 -7 10 -4 6 3 10 8 10 11 0 2 -4 4 -10 4 -5 0 -10
-5 -10 -11z"/>
<path d="M2340 4358 c-14 -5 -56 -7 -97 -4 -40 3 -73 2 -73 -3 0 -12 21 -19
79 -27 52 -7 156 19 145 37 -7 11 -22 11 -54 -3z"/>
<path d="M2386 4333 c-45 -24 -136 -28 -192 -9 -29 10 -52 12 -57 7 -24 -24
105 -51 189 -40 57 7 109 29 107 44 -2 16 -16 15 -47 -2z"/>
<path d="M1710 4323 c-34 -23 -41 -35 -28 -50 15 -18 63 -16 79 3 11 14 11 18
-4 29 -23 17 -10 26 20 14 29 -11 45 -3 23 11 -23 15 -63 12 -90 -7z m30 -32
c0 -14 -18 -23 -30 -16 -6 4 -8 11 -5 16 8 12 35 12 35 0z"/>
<path d="M3016 4332 c-3 -5 10 -8 29 -8 18 1 31 4 28 9 -6 10 -51 9 -57 -1z"/>
<path d="M6598 4263 c7 -3 16 -2 19 1 4 3 -2 6 -13 5 -11 0 -14 -3 -6 -6z"/>
<path d="M5500 4242 c0 -4 9 -8 20 -8 11 0 20 4 20 8 0 4 -9 8 -20 8 -11 0
-20 -4 -20 -8z"/>
<path d="M6675 4210 c4 -6 55 -35 113 -64 99 -49 132 -58 132 -35 0 4 -6 6
-14 3 -8 -3 -64 20 -126 51 -61 31 -109 51 -105 45z"/>
<path d="M1515 4158 c-4 -24 -5 -65 -3 -93 l3 -50 135 -72 c146 -78 197 -108
113 -68 l-53 25 0 -139 0 -139 32 -33 c18 -18 56 -43 85 -55 29 -13 53 -29 53
-35 0 -7 13 -9 38 -4 l37 6 -5 -326 c-4 -232 -2 -325 6 -325 6 0 19 9 30 21
18 20 19 43 22 321 3 263 5 299 18 294 9 -3 18 -6 20 -6 2 0 4 -11 4 -24 0
-20 16 -33 90 -76 63 -36 96 -49 110 -45 21 7 21 6 15 -292 -3 -164 -8 -308
-11 -320 -5 -28 6 -29 37 -4 23 18 23 20 29 317 4 257 7 299 20 299 8 0 20
-16 26 -35 9 -29 26 -44 90 -82 60 -36 86 -46 106 -42 l27 5 -5 -278 c-3 -153
-6 -297 -8 -320 -4 -53 15 -58 44 -10 19 30 20 51 20 315 0 275 0 282 20 282
16 0 20 -7 20 -33 0 -32 5 -36 85 -80 47 -26 97 -47 110 -47 l25 0 -1 -157 c0
-87 -4 -230 -8 -318 -4 -88 -7 -161 -5 -163 7 -9 53 32 57 51 3 12 9 149 13
305 6 245 9 283 22 280 8 -2 21 -19 27 -38 9 -28 26 -44 81 -77 43 -26 82 -42
103 -42 l34 -1 -7 -292 c-4 -161 -9 -306 -13 -322 -4 -24 -3 -28 12 -23 9 4
18 7 21 7 2 0 10 12 18 28 11 20 16 97 21 315 7 271 9 287 26 287 15 0 19 -8
19 -35 0 -32 4 -36 68 -71 37 -21 70 -42 74 -48 3 -5 22 -10 42 -10 43 -1 40
36 26 -326 -6 -146 -15 -277 -20 -292 -15 -47 33 -30 60 21 12 23 28 317 30
529 0 64 2 73 18 70 10 -2 21 -17 26 -39 7 -29 19 -41 60 -64 28 -16 62 -37
75 -47 13 -10 37 -18 53 -18 l30 0 -7 -187 c-4 -104 -11 -246 -14 -318 -4 -71
-6 -131 -6 -133 1 -1 9 0 18 4 30 11 46 84 51 239 15 366 17 386 40 383 14 -2
25 -14 32 -38 9 -29 21 -40 67 -63 31 -15 57 -34 57 -41 0 -8 6 -14 13 -13 6
0 25 -1 41 -1 l29 -2 -8 -197 c-4 -109 -10 -251 -14 -316 -6 -121 -3 -130 33
-104 20 15 30 112 41 420 6 157 9 178 24 175 9 -2 22 -15 29 -30 7 -15 39 -43
72 -63 35 -21 60 -44 60 -53 0 -10 3 -13 8 -7 7 10 68 13 76 4 5 -5 -23 -601
-29 -616 -7 -20 11 -15 41 10 l27 23 8 240 c13 361 12 349 29 349 8 0 21 -19
30 -43 13 -35 28 -51 79 -83 45 -28 72 -39 102 -39 l39 0 -6 -107 c-3 -60 -11
-201 -18 -315 -6 -115 -8 -208 -5 -208 4 0 18 13 31 29 24 28 25 36 37 307 7
154 14 280 16 282 9 9 44 -21 54 -47 16 -37 117 -101 172 -108 l39 -6 0 -71
c-1 -39 -7 -183 -14 -321 -8 -137 -13 -251 -12 -252 1 -1 15 8 30 21 l29 22
13 255 c7 140 13 275 14 302 0 38 3 47 18 47 12 0 25 -15 36 -40 12 -29 32
-49 71 -72 52 -32 55 -35 56 -78 2 -41 3 -42 6 -10 4 35 5 35 45 32 l41 -4 -6
-62 c-4 -33 -11 -171 -18 -306 -9 -200 -14 -247 -27 -257 -14 -11 -13 -13 5
-13 12 0 32 13 46 29 26 32 30 68 42 391 7 189 12 220 30 220 8 0 26 -18 40
-40 14 -22 48 -55 75 -73 36 -23 50 -39 51 -57 1 -14 3 -18 5 -10 4 12 15 14
45 12 l40 -4 -6 -67 c-8 -90 -25 -396 -25 -450 0 -41 -1 -43 -17 -29 -36 30
-50 29 -50 -5 0 -38 31 -87 56 -87 10 0 28 11 41 25 23 24 25 37 37 243 6 119
13 249 15 287 3 63 5 70 25 73 17 3 27 -6 42 -36 13 -25 37 -49 67 -67 25 -15
55 -36 65 -46 10 -10 33 -19 50 -19 l31 0 -6 -62 c-4 -35 -13 -169 -22 -298
-8 -129 -17 -241 -19 -248 -4 -10 -10 -9 -30 4 -23 15 -25 15 -19 0 9 -24 50
-31 79 -12 31 20 32 26 53 351 15 240 19 270 34 273 12 2 23 -8 35 -32 28 -59
156 -145 218 -145 28 -1 91 22 112 41 10 9 32 22 48 31 63 31 68 44 64 169
l-4 112 25 8 c14 4 38 10 53 13 18 4 34 17 45 38 9 17 53 70 97 116 96 100
396 376 471 432 l53 41 60 -28 c53 -23 63 -25 78 -13 15 12 104 87 192 164
l23 20 -2 -50 c-4 -75 -2 -79 28 -97 19 -12 32 -14 45 -7 18 10 24 49 8 49
-11 0 -5 117 10 197 6 30 18 58 27 64 12 7 13 9 2 6 -11 -3 -15 4 -14 30 1 38
20 61 103 126 l56 45 45 -23 45 -23 -12 -193 c-22 -372 -16 -449 36 -449 16 0
19 22 30 238 6 130 14 270 18 310 6 69 7 72 32 72 17 0 39 14 66 41 22 23 59
54 82 70 47 33 68 79 78 173 5 51 3 62 -15 81 l-20 21 55 47 54 48 -2 83 c-1
63 -5 83 -14 78 -7 -4 -116 -92 -242 -195 -217 -177 -230 -189 -225 -216 5
-25 -4 -36 -107 -123 -108 -91 -114 -95 -124 -74 -6 11 -18 31 -26 44 -13 22
-11 26 44 77 31 30 59 55 61 55 3 0 18 12 34 28 51 47 66 57 79 54 19 -4 16 9
-9 35 -24 26 -14 31 18 8 20 -14 23 -11 64 77 42 88 56 157 34 165 -6 2 -51
-29 -100 -68 -49 -39 -98 -78 -109 -86 -20 -14 -20 -14 -1 -28 25 -19 11 -33
-15 -16 -19 11 -28 6 -97 -50 -97 -79 -102 -83 -102 -76 0 5 94 87 156 137
189 151 274 223 274 230 0 12 -17 13 -22 2 -8 -21 -247 -202 -260 -197 -8 3
-23 -5 -34 -17 l-19 -23 23 19 c12 11 25 17 28 14 3 -3 -16 -23 -41 -44 -26
-22 -92 -76 -146 -121 -55 -46 -109 -83 -122 -84 -12 0 -16 -3 -10 -6 10 -3
10 -10 2 -24 -5 -11 -7 -24 -4 -29 3 -6 -3 -10 -13 -10 -15 0 -19 5 -15 20 3
11 1 20 -5 20 -15 0 -52 -50 -52 -71 0 -10 -4 -21 -10 -24 -5 -3 -10 -3 -10 2
0 4 -15 14 -32 21 -29 12 -114 53 -338 162 -36 17 -72 36 -80 41 -21 13 -74
33 -82 31 -5 -1 -8 2 -8 7 0 7 -51 31 -65 31 -2 0 -6 -10 -9 -22 -3 -13 -21
-34 -40 -48 -18 -14 -78 -61 -132 -105 -54 -44 -105 -85 -112 -90 -11 -9 -2
-18 38 -43 29 -18 51 -34 49 -36 -2 -2 -60 -50 -129 -107 -69 -57 -133 -110
-142 -117 -14 -11 -26 -8 -80 20 -35 18 -67 33 -72 33 -5 0 -11 -25 -13 -56
-3 -62 5 -72 99 -119 25 -12 48 -30 51 -39 4 -16 265 -151 292 -151 21 0 118
-39 136 -56 21 -19 36 -18 43 4 3 9 28 32 55 50 27 19 61 47 77 63 15 16 33
29 39 29 7 0 20 9 30 20 12 13 23 17 34 11 19 -10 41 -4 41 11 0 7 -5 6 -14
-1 -11 -9 -16 -9 -22 0 -4 8 3 21 20 34 21 17 27 31 29 68 1 26 5 47 9 47 3 0
30 -11 59 -24 29 -14 58 -22 64 -18 6 4 35 26 65 48 41 31 68 43 105 48 l50 6
-35 -33 c-19 -17 -55 -49 -79 -69 -71 -60 -42 -53 34 8 136 109 145 116 145
111 0 -3 -66 -61 -147 -128 -82 -68 -167 -143 -190 -166 -22 -24 -49 -43 -59
-43 -9 0 -22 -8 -29 -17 -11 -14 -15 -15 -28 -4 -17 13 -37 8 -37 -10 0 -6 9
-7 20 -4 38 12 21 -22 -22 -44 -15 -8 -28 -23 -30 -34 -2 -14 -14 -24 -35 -29
-22 -6 -33 -15 -35 -31 -2 -15 -12 -23 -33 -27 -27 -5 -30 -9 -29 -43 1 -20
-3 -37 -7 -37 -5 0 -9 5 -9 10 0 6 -11 10 -25 10 -34 0 -44 -27 -16 -46 29
-20 18 -34 -27 -34 -50 -1 -116 -32 -168 -80 -24 -22 -52 -40 -63 -40 -11 0
-69 26 -128 59 -59 32 -184 98 -278 146 -93 48 -330 171 -525 273 -195 101
-580 300 -855 442 -275 142 -527 272 -560 289 -33 17 -85 34 -115 39 -52 7
-55 9 -52 34 4 29 -23 44 -58 33 -15 -5 -22 0 -30 19 -7 20 -17 26 -39 26 -16
0 -33 -5 -36 -10 -13 -21 -24 -9 -19 20 5 25 3 30 -19 35 -14 4 -35 1 -47 -5
-21 -11 -22 -11 -16 14 5 22 2 28 -20 36 -14 6 -30 8 -35 5 -4 -3 -18 6 -31
20 -25 28 -59 32 -82 9 -19 -18 -36 -10 -36 17 0 39 -5 42 -567 330 -153 78
-341 174 -418 214 -77 40 -252 130 -390 200 -137 70 -341 174 -452 232 l-202
104 -6 -43z m212 -440 c-2 -29 -3 -6 -3 52 0 58 1 81 3 53 2 -29 2 -77 0 -105z
m433 -43 c0 -3 -22 6 -50 20 -27 14 -50 28 -50 30 0 3 23 -6 50 -20 28 -14 50
-28 50 -30z m310 -160 c0 -3 -22 6 -50 20 -27 14 -50 28 -50 30 0 3 23 -6 50
-20 28 -14 50 -28 50 -30z m46 -21 c18 -14 18 -14 -6 -3 -31 14 -36 19 -24 19
6 0 19 -7 30 -16z m60 -30 c18 -14 18 -14 -6 -3 -31 14 -36 19 -24 19 6 0 19
-7 30 -16z m324 -169 c0 -3 -49 20 -110 50 -60 30 -110 57 -110 60 0 3 50 -20
110 -50 61 -30 110 -57 110 -60z m216 -113 c-5 -4 -106 46 -106 53 0 3 25 -7
55 -22 30 -15 53 -29 51 -31z m74 -38 c0 -2 -13 2 -30 11 -16 9 -30 18 -30 21
0 2 14 -2 30 -11 17 -9 30 -18 30 -21z m46 -20 c18 -14 18 -14 -6 -3 -31 14
-36 19 -24 19 6 0 19 -7 30 -16z m133 -70 c14 -12 -19 -1 -35 12 -18 14 -18
14 6 3 14 -6 27 -13 29 -15z m311 7 c0 -6 -4 -13 -10 -16 -5 -3 -10 1 -10 9 0
9 5 16 10 16 6 0 10 -4 10 -9z m-275 -29 c-3 -3 -11 0 -18 7 -9 10 -8 11 6 5
10 -3 15 -9 12 -12z m4985 -86 c0 -2 -8 -10 -17 -17 -16 -13 -17 -12 -4 4 13
16 21 21 21 13z m-4450 -66 c0 -5 -4 -10 -9 -10 -6 0 -13 5 -16 10 -3 6 1 10
9 10 9 0 16 -4 16 -10z m-190 -14 c0 -3 -4 -8 -10 -11 -5 -3 -10 -1 -10 4 0 6
5 11 10 11 6 0 10 -2 10 -4z m3050 -47 c0 -38 16 -69 36 -69 8 0 13 -4 9 -10
-3 -5 -2 -17 4 -27 5 -10 13 -29 19 -43 6 -16 32 -38 68 -57 l58 -31 -39 -38
c-35 -33 -37 -37 -15 -31 19 5 31 -1 57 -29 18 -20 37 -33 43 -29 15 9 12 28
-3 22 -8 -3 -13 3 -13 14 0 20 21 26 31 9 3 -5 17 -10 30 -10 12 0 25 -6 28
-14 3 -8 18 -16 34 -18 39 -4 35 -22 -5 -26 -22 -2 -41 3 -53 14 -13 12 -23
14 -30 7 -14 -14 80 -43 120 -37 33 5 43 -11 14 -20 -10 -3 -1 -3 21 -1 21 2
47 12 57 21 11 10 22 14 27 10 9 -10 -85 -96 -105 -96 -8 0 -52 20 -97 44 -44
24 -185 96 -313 160 l-232 117 42 39 c56 51 190 159 200 159 4 1 7 -13 7 -30z
m-2870 11 c0 -5 -2 -10 -4 -10 -3 0 -8 5 -11 10 -3 6 -1 10 4 10 6 0 11 -4 11
-10z m3750 7 c0 -2 -24 -23 -52 -46 l-53 -43 48 46 c45 43 57 51 57 43z m114
-189 c13 -18 22 -36 19 -40 -10 -18 -228 -188 -240 -188 -7 0 -10 7 -6 15 3 9
-3 25 -12 35 -17 19 -16 21 21 62 37 41 171 147 186 148 4 0 18 -14 32 -32z
m-3504 -74 c0 -2 -13 2 -30 11 -16 9 -30 18 -30 21 0 2 14 -2 30 -11 17 -9 30
-18 30 -21z m3164 -24 c0 -46 4 -58 24 -74 14 -11 20 -22 14 -28 -11 -11 -77
16 -94 40 -7 10 -26 21 -43 25 -52 10 -104 36 -115 57 -10 19 -9 20 17 14 15
-3 48 -17 72 -30 24 -13 52 -24 61 -24 10 0 21 -6 23 -12 3 -8 6 -6 6 5 1 9 6
17 13 17 7 0 6 5 -4 13 -18 14 -29 42 -20 51 3 4 15 6 27 4 17 -3 20 -10 19
-58z m-339 -14 c19 -8 35 -19 35 -25 0 -5 -18 -2 -40 7 -22 9 -40 20 -40 25 0
10 6 9 45 -7z m-348 -72 c-1 -1 -26 6 -56 16 -44 15 -50 19 -36 27 13 8 27 4
56 -15 21 -14 38 -27 36 -28z m-82 -16 c25 -12 45 -25 45 -28 0 -4 -9 -15 -20
-25 -21 -19 -42 -15 -98 22 -23 14 -23 15 -6 34 21 24 24 24 79 -3z m553 -3
c-3 -3 -9 2 -12 12 -6 14 -5 15 5 6 7 -7 10 -15 7 -18z m-233 -41 c25 -14 45
-29 45 -34 0 -4 -11 -15 -24 -23 -13 -9 -31 -24 -41 -34 -10 -10 -39 -23 -64
-28 -43 -10 -46 -13 -44 -41 2 -26 -3 -33 -34 -48 -21 -10 -43 -26 -51 -37
-16 -23 -38 -25 -46 -4 -3 8 -14 15 -24 15 -28 0 -82 21 -82 31 0 16 31 23 50
11 20 -12 42 -1 38 19 -4 17 49 14 70 -3 7 -6 15 -8 18 -6 8 9 -47 48 -67 48
-39 0 -25 14 139 143 39 30 48 29 117 -9z m-384 -16 c45 -25 47 -31 17 -52
-19 -13 -25 -13 -57 0 -20 8 -43 22 -51 30 -13 14 -13 17 4 30 27 19 42 18 87
-8z m-42 -73 c12 -11 12 -17 1 -29 -18 -22 -33 -20 -25 4 4 14 2 20 -9 20 -8
0 -18 -4 -21 -10 -12 -19 -26 -10 -20 11 6 19 4 21 -19 15 -29 -7 -35 8 -9 23
19 10 77 -9 102 -34z m231 -690 c0 -37 -22 -49 -34 -19 -9 23 2 54 20 54 9 0
14 -11 14 -35z m-1038 -710 c-2 -14 -10 -25 -17 -25 -10 0 -11 5 -2 25 15 32
26 32 19 0z"/>
<path d="M7724 2596 c-22 -18 -52 -45 -69 -59 -16 -15 -24 -27 -17 -27 6 0 12
4 12 9 0 5 11 12 25 15 14 4 25 11 25 16 0 6 6 10 13 10 14 0 67 50 67 63 0
15 -19 6 -56 -27z"/>
<path d="M6625 2441 c-8 -14 31 -33 58 -29 20 3 19 5 -10 21 -37 20 -40 20
-48 8z"/>
<path d="M6560 2380 c0 -14 38 -32 58 -28 13 3 9 8 -15 21 -37 20 -43 21 -43
7z"/>
<path d="M5386 4161 c-3 -5 5 -8 18 -7 13 0 22 4 19 9 -6 10 -31 9 -37 -2z"/>
<path d="M5730 4160 c-12 -7 -10 -9 7 -7 12 0 19 5 17 9 -6 10 -6 10 -24 -2z"/>
<path d="M5658 4108 c-30 -24 -41 -27 -57 -19 -24 13 -31 14 -31 3 0 -9 85
-52 103 -52 7 1 4 6 -6 14 -17 13 -15 16 18 44 25 20 32 31 23 35 -8 2 -30 -9
-50 -25z"/>
<path d="M6935 4100 c3 -5 11 -10 16 -10 6 0 7 5 4 10 -3 6 -11 10 -16 10 -6
0 -7 -4 -4 -10z"/>
<path d="M2658 4083 c-30 -7 -20 -18 17 -18 19 0 35 1 35 2 0 8 -38 19 -52 16z"/>
<path d="M5753 4083 c-18 -7 -16 -23 4 -45 24 -27 7 -35 -29 -14 -22 14 -29
15 -26 5 8 -25 57 -43 85 -30 l24 11 -21 28 c-19 24 -20 27 -5 30 9 2 25 -4
35 -13 10 -9 24 -14 31 -9 8 4 0 13 -22 25 -34 18 -54 22 -76 12z"/>
<path d="M5027 4073 c-14 -14 -6 -25 9 -12 13 10 17 10 25 -2 7 -11 9 -11 9 4
0 17 -30 24 -43 10z"/>
<path d="M5137 4033 c-3 -5 6 -9 19 -9 13 -1 21 2 18 7 -6 11 -31 12 -37 2z"/>
<path d="M5870 4021 c0 -14 -8 -21 -27 -23 -36 -4 -36 -28 -1 -47 29 -17 48
-11 97 30 27 22 20 39 -9 21 -26 -16 -28 -16 -32 10 -4 28 -28 36 -28 9z m9
-40 c9 -6 10 -10 2 -16 -16 -9 -44 2 -36 15 8 12 16 12 34 1z"/>
<path d="M5447 4024 c-4 -4 -7 -12 -7 -18 0 -6 4 -5 9 3 8 13 12 13 27 0 15
-12 17 -12 12 1 -5 17 -30 25 -41 14z"/>
<path d="M5993 3947 c-32 -35 -38 -45 -27 -55 18 -16 27 -15 20 3 -3 9 0 15 8
15 18 0 49 36 42 49 -4 5 2 14 11 20 15 9 15 10 2 11 -9 0 -34 -19 -56 -43z"/>
<path d="M3177 3973 c-14 -13 -7 -25 8 -13 8 7 22 10 30 6 9 -3 13 -2 10 4 -7
11 -38 13 -48 3z"/>
<path d="M4895 3966 c-16 -11 -14 -13 14 -13 32 0 41 11 17 20 -8 3 -22 0 -31
-7z"/>
<path d="M6080 3970 c12 -8 12 -10 -5 -10 -11 0 -30 -15 -42 -33 -41 -60 -25
-65 34 -11 31 29 54 56 50 60 -4 4 -7 1 -7 -6 0 -11 -3 -11 -12 -2 -7 7 -17
12 -22 12 -6 0 -4 -5 4 -10z"/>
<path d="M4960 3938 c-13 -10 -32 -17 -42 -15 -14 4 -18 -1 -18 -22 0 -15 -5
-32 -11 -38 -8 -8 -1 -17 27 -31 22 -11 61 -32 88 -46 l48 -26 39 28 c42 30
46 37 24 46 -10 3 -15 -1 -15 -13 0 -10 -7 -21 -15 -25 -12 -4 -13 -2 -7 12 5
9 12 34 15 55 6 39 1 40 -35 9 -10 -8 -25 -12 -35 -8 -15 6 -13 10 15 28 18
11 32 22 30 23 -2 1 -21 12 -43 23 -40 20 -40 20 -65 0z"/>
<path d="M5265 3887 l-27 -23 26 -13 c14 -8 26 -18 26 -23 0 -12 -13 -10 -38
8 -21 15 -24 14 -41 -8 -19 -23 -19 -23 12 -40 18 -9 34 -12 37 -8 3 4 19 9
35 11 32 3 68 27 60 39 -7 11 22 33 35 25 5 -3 10 1 10 9 0 9 -6 17 -12 18 -7
0 -17 2 -23 2 -5 1 -20 7 -32 14 -30 17 -38 15 -68 -11z"/>
<path d="M5536 3891 c-3 -5 5 -8 18 -7 13 0 22 4 19 9 -6 10 -31 9 -37 -2z"/>
<path d="M5911 3887 c-8 -10 -7 -14 4 -14 8 0 12 4 9 8 -2 4 2 10 8 12 8 4 9
6 2 6 -6 1 -17 -5 -23 -12z"/>
<path d="M5426 3819 c-33 -26 -33 -33 2 -49 21 -10 23 -14 10 -17 -9 -2 -26 1
-38 7 -16 9 -24 7 -41 -8 l-20 -19 35 -21 c39 -23 46 -19 19 11 -17 19 -17 20
4 8 12 -6 25 -16 28 -21 3 -6 11 -10 16 -10 6 0 7 5 4 10 -4 6 8 13 25 17 21
4 35 14 41 30 5 14 18 27 29 30 19 5 19 6 3 18 -10 7 -21 11 -25 9 -4 -3 -21
2 -37 10 -27 14 -31 14 -55 -5z"/>
<path d="M3760 3789 l-25 -21 32 18 c40 22 54 12 22 -16 l-24 -21 28 4 c15 2
27 0 27 -4 0 -5 8 -9 18 -9 14 0 15 2 2 10 -12 7 -10 9 7 7 21 -1 21 -2 6 -19
-21 -23 -11 -23 26 0 l30 18 -55 27 c-65 32 -62 32 -94 6z"/>
<path d="M5990 3793 c0 -4 5 -15 10 -23 8 -13 10 -13 10 2 0 9 -4 20 -10 23
-5 3 -10 3 -10 -2z"/>
<path d="M6959 3753 c-13 -16 -12 -17 4 -4 16 13 21 21 13 21 -2 0 -10 -8 -17
-17z"/>
<path d="M3730 3743 c0 -10 -3 -27 -6 -38 -4 -17 7 -26 71 -58 41 -20 82 -37
89 -37 8 0 29 12 46 27 27 22 29 28 16 35 -10 6 -16 22 -16 44 l0 35 -31 -29
-32 -30 -31 19 c-17 10 -48 25 -68 34 -36 14 -38 14 -38 -2z m175 -93 c-3 -5
-11 -10 -16 -10 -6 0 -7 5 -4 10 3 6 11 10 16 10 6 0 7 -4 4 -10z"/>
<path d="M6046 3735 c-3 -8 -1 -15 4 -15 6 0 10 7 10 15 0 8 -2 15 -4 15 -2 0
-6 -7 -10 -15z"/>
<path d="M7655 3720 c13 -21 221 -117 264 -123 27 -3 40 -2 34 4 -5 5 -23 11
-40 13 -16 2 -80 29 -141 60 -117 58 -127 63 -117 46z"/>
<path d="M5650 3691 c0 -5 9 -7 20 -4 11 3 20 7 20 9 0 2 -9 4 -20 4 -11 0
-20 -4 -20 -9z"/>
<path d="M6860 3645 c-7 -8 -18 -15 -26 -15 -20 0 -64 -22 -64 -32 0 -5 10 -2
22 6 12 9 30 16 39 16 9 0 24 9 34 20 10 11 16 20 13 20 -3 0 -11 -7 -18 -15z"/>
<path d="M5313 3643 c-7 -2 -13 -9 -13 -14 0 -5 9 -4 19 3 15 9 23 9 38 -3 16
-13 17 -13 4 4 -14 17 -25 20 -48 10z"/>
<path d="M7731 3594 c0 -11 3 -14 6 -6 3 7 2 16 -1 19 -3 4 -6 -2 -5 -13z"/>
<path d="M3123 3574 c-79 -62 -9 -144 123 -144 48 0 55 2 52 18 -2 9 -10 16
-18 14 -47 -11 -89 -12 -110 -3 -14 5 -19 10 -12 10 7 1 10 6 7 11 -4 6 -1 17
5 25 19 23 5 43 -24 38 -14 -3 -23 -9 -20 -14 3 -5 -2 -9 -10 -9 -25 0 -19 16
17 49 39 38 34 40 -10 5z"/>
<path d="M3172 3583 c-7 -13 -5 -23 7 -35 14 -14 19 -14 35 -2 19 13 19 14 1
34 -22 25 -32 25 -43 3z"/>
<path d="M4116 3592 c-3 -5 6 -12 20 -15 15 -3 23 0 21 7 -5 14 -33 20 -41 8z"/>
<path d="M7782 3573 c-23 -8 -40 -19 -37 -23 3 -5 23 -3 45 5 50 18 52 7 10
-58 -32 -51 -37 -72 -18 -83 8 -5 9 -1 5 12 -7 18 -7 18 8 0 8 -11 15 -23 15
-27 0 -4 10 -9 23 -13 19 -5 20 -8 7 -17 -12 -8 -10 -9 8 -4 12 3 22 3 22 -2
0 -13 110 -15 142 -2 32 13 63 63 51 82 -5 8 -9 3 -14 -13 -6 -21 -7 -19 -8
13 -1 29 -10 47 -38 79 -21 22 -37 44 -35 49 3 13 -22 11 -35 -2 -8 -8 -19 -6
-41 5 -37 19 -54 19 -110 -1z m124 -79 c-3 -8 -15 -14 -26 -14 -12 0 -19 -4
-15 -10 3 -5 11 -7 18 -4 7 2 17 -4 24 -15 10 -16 9 -18 -11 -18 -14 0 -28 10
-38 27 -14 25 -14 28 3 39 13 7 19 8 19 0 0 -5 4 -8 10 -4 6 4 6 15 0 31 -15
38 -11 43 6 11 9 -16 13 -35 10 -43z m94 -84 c0 -5 -8 -10 -17 -10 -15 0 -16
2 -3 10 19 12 20 12 20 0z"/>
<path d="M4706 3541 l-27 -29 32 -11 c24 -8 30 -14 21 -23 -8 -8 -18 -7 -38 7
-25 16 -27 16 -46 -3 l-21 -20 32 -16 c17 -9 31 -12 31 -7 0 7 9 7 27 0 15 -6
24 -7 20 -3 -4 4 7 13 25 18 18 6 33 18 33 26 1 25 16 42 32 36 8 -4 13 -1 11
5 -2 6 -19 17 -38 24 -19 7 -42 15 -50 19 -10 4 -26 -4 -44 -23z"/>
<path d="M5873 3549 c-30 -11 -36 -25 -17 -43 33 -34 114 -7 85 28 -16 19 -42
25 -68 15z"/>
<path d="M7983 3553 c3 -5 46 -28 96 -52 l91 -45 -22 -23 c-12 -13 -17 -23
-12 -23 5 0 -5 -9 -22 -19 -35 -22 -49 -39 -39 -49 3 -3 9 -1 13 5 4 7 13 8
20 4 9 -5 5 -18 -18 -49 -20 -28 -26 -43 -18 -48 7 -4 8 -3 4 4 -10 16 -1 15
34 -3 17 -9 30 -20 30 -26 0 -5 15 -16 33 -24 17 -7 40 -23 49 -34 22 -27 38
-27 31 -1 -4 14 0 20 12 20 11 0 15 -5 11 -16 -3 -8 -2 -13 3 -9 5 3 11 0 13
-5 4 -12 40 13 111 76 l47 42 -25 16 c-13 9 -29 16 -34 16 -5 0 -11 4 -13 9
-1 5 -22 30 -46 55 -37 40 -45 44 -61 34 -15 -9 -26 -9 -44 -1 -14 7 -36 9
-48 6 -21 -6 -22 -4 -11 9 9 11 26 14 65 11 38 -3 48 -2 37 6 -8 6 -26 11 -39
11 -13 0 -70 25 -126 55 -96 51 -133 66 -122 48z m172 -173 c-10 -11 -25 -20
-33 -20 -12 0 -12 4 3 20 10 11 25 20 33 20 12 0 12 -4 -3 -20z m85 -21 c0 -5
-5 -7 -12 -3 -7 4 -8 3 -4 -4 4 -7 15 -12 25 -12 10 0 24 -7 31 -15 6 -8 17
-13 22 -12 6 1 12 -3 15 -9 5 -14 -81 -37 -107 -29 -23 7 -29 31 -17 68 9 26
47 40 47 16z m150 -98 c0 -5 -7 -12 -16 -15 -14 -5 -15 -4 -4 9 14 17 20 19
20 6z"/>
<path d="M8250 3316 c0 -2 7 -6 15 -10 8 -3 15 -1 15 4 0 6 -7 10 -15 10 -8 0
-15 -2 -15 -4z"/>
<path d="M4885 3505 c-41 -35 -34 -48 10 -19 25 16 25 16 25 -14 0 -44 12 -46
59 -10 58 45 57 68 -1 27 l-29 -21 6 36 c6 31 5 36 -11 36 -11 -1 -37 -16 -59
-35z"/>
<path d="M5250 3505 c-7 -8 -25 -15 -41 -15 -38 0 -46 -18 -14 -30 14 -5 38
-19 54 -31 19 -14 44 -22 70 -22 24 0 38 -4 34 -10 -3 -5 0 -7 8 -5 8 3 13 11
11 17 -1 7 2 10 7 7 5 -4 12 -2 16 4 10 16 28 12 21 -5 -4 -11 -1 -13 12 -6
59 29 112 50 112 43 0 -5 -35 -36 -77 -70 -114 -89 -150 -129 -137 -150 9 -15
160 -97 264 -143 19 -8 81 -39 137 -67 93 -48 107 -52 170 -52 l68 0 102 86
c57 47 107 82 113 79 8 -5 7 -11 -1 -21 -14 -17 2 -19 19 -2 7 7 12 8 12 2 0
-5 -9 -15 -20 -22 -11 -7 -20 -21 -20 -31 0 -11 -22 -37 -51 -60 -60 -47 -85
-55 -37 -11 18 16 28 30 21 30 -6 0 -15 -5 -18 -10 -4 -6 -29 -22 -56 -35 -27
-14 -49 -28 -49 -31 0 -2 9 0 19 6 33 17 30 12 -26 -44 l-55 -55 -349 172
c-192 95 -349 176 -349 181 0 5 26 33 58 62 l57 53 -40 -4 c-32 -4 -36 -3 -20
5 15 8 8 9 -30 5 -39 -4 -56 -11 -75 -33 -14 -16 -32 -32 -40 -36 -8 -3 -3 -4
13 -2 15 2 27 -1 27 -7 0 -6 13 1 28 16 38 37 58 35 31 -3 -12 -16 -26 -27
-30 -24 -5 2 -2 -7 6 -22 7 -15 11 -32 9 -39 -4 -11 81 -75 100 -75 12 0 270
-127 291 -144 17 -13 18 -15 3 -16 -9 0 -20 5 -23 10 -4 6 -10 8 -15 5 -5 -3
-28 1 -52 10 -57 19 -67 19 -61 -4 3 -10 0 -21 -5 -25 -12 -7 -190 79 -219
107 -23 20 -23 20 -23 0 0 -11 8 -27 18 -36 24 -21 308 -156 323 -153 4 0 16
-8 28 -18 12 -11 21 -16 21 -12 0 4 19 -6 43 -22 66 -46 240 -122 278 -122 19
0 55 11 79 24 25 13 60 32 77 42 35 19 59 11 30 -10 -33 -25 -17 -27 24 -4 22
12 46 32 51 43 17 30 39 49 46 39 11 -15 53 -36 60 -30 3 3 0 6 -6 6 -7 0 -12
4 -12 9 0 4 12 6 28 4 26 -5 26 -4 -7 17 -37 23 -72 21 -104 -8 -15 -13 -22
-14 -37 -4 -11 7 -27 12 -35 12 -22 0 -19 7 17 39 26 23 35 27 50 17 15 -9 23
-5 48 19 24 25 32 44 42 108 8 55 16 77 26 77 12 0 12 3 2 15 -16 20 -6 19 14
-1 19 -19 38 -10 29 14 -13 32 -30 43 -43 27 -16 -19 -30 -19 -30 -1 0 8 8 17
18 21 14 5 10 10 -20 26 -31 16 -41 17 -57 7 -15 -9 -28 -8 -66 7 l-48 18 26
14 c26 13 36 37 20 46 -5 3 -22 8 -40 11 -25 6 -36 3 -52 -13 l-21 -21 -53 27
c-42 22 -48 28 -30 31 34 5 47 27 28 46 -23 23 -71 20 -88 -5 l-15 -20 -57 29
-58 29 31 6 c43 9 44 41 1 56 -38 13 -66 1 -71 -31 -3 -19 -5 -20 -18 -7 -9 8
-22 15 -30 17 -8 2 -35 15 -59 29 -31 18 -40 28 -30 33 7 5 21 4 31 -1 12 -6
18 -6 18 0 0 24 -41 21 -75 -5 -24 -18 -42 -24 -57 -21 -15 4 -30 -1 -44 -14
-21 -19 -24 -20 -52 -5 -17 9 -34 20 -37 26 -4 6 -14 2 -24 -11 -11 -14 -23
-19 -30 -15 -9 6 -7 12 8 23 29 20 26 29 -10 42 -41 14 -44 14 -59 -4z m335
-113 c-16 -15 -43 -45 -59 -66 -28 -38 -29 -39 -10 -52 10 -7 24 -18 30 -23
23 -19 112 -60 118 -54 3 4 6 1 6 -6 0 -8 6 -11 16 -7 8 3 13 2 10 -3 -6 -8
13 -17 79 -39 17 -6 47 -17 68 -26 38 -17 38 -17 68 14 17 16 34 30 39 30 4 0
16 12 25 27 14 21 15 30 6 46 -7 10 -9 17 -4 14 4 -2 29 -14 56 -26 26 -12 47
-27 47 -34 0 -13 -64 -75 -114 -111 -15 -11 -34 -35 -41 -53 -16 -37 -37 -42
-57 -15 -7 10 -83 53 -168 96 -85 43 -159 82 -164 87 -6 5 -18 9 -27 9 -9 0
-22 7 -29 15 -7 8 -20 15 -29 15 -9 0 -27 9 -41 20 l-25 20 25 21 c14 11 33
27 43 35 9 7 20 14 22 14 3 0 28 18 56 40 59 47 102 56 54 12z m155 -497 c46
-19 90 -41 99 -48 9 -8 26 -18 38 -21 13 -4 24 -18 28 -36 4 -17 14 -34 22
-39 20 -11 53 -2 53 14 0 14 46 29 61 19 14 -8 -7 -31 -45 -51 -59 -30 -111
-22 -231 39 -98 49 -110 59 -113 84 -2 16 -7 33 -12 38 -10 10 -2 36 10 36 5
0 45 -16 90 -35z"/>
<path d="M5780 2852 c0 -5 7 -9 15 -9 8 0 15 4 15 9 0 4 -7 8 -15 8 -8 0 -15
-4 -15 -8z"/>
<path d="M7695 3500 c-11 -17 15 -59 32 -53 11 5 11 9 -3 24 -15 17 -15 19 -1
25 8 3 25 0 37 -6 18 -10 21 -9 18 2 -6 16 -74 23 -83 8z"/>
<path d="M3510 3494 c0 -2 9 -8 20 -14 11 -6 20 -7 20 -2 0 6 -9 12 -20 15
-11 3 -20 3 -20 1z"/>
<path d="M7000 3490 c0 -5 5 -10 11 -10 5 0 7 5 4 10 -3 6 -8 10 -11 10 -2 0
-4 -4 -4 -10z"/>
<path d="M7568 3493 c7 -3 16 -2 19 1 4 3 -2 6 -13 5 -11 0 -14 -3 -6 -6z"/>
<path d="M7035 3479 c-4 -6 1 -16 11 -24 11 -7 21 -9 22 -4 6 15 18 11 43 -15
14 -13 40 -25 62 -28 20 -2 37 -3 37 -2 0 3 -160 84 -165 84 -2 0 -7 -5 -10
-11z"/>
<path d="M7605 3480 c3 -5 11 -10 16 -10 6 0 7 5 4 10 -3 6 -11 10 -16 10 -6
0 -7 -4 -4 -10z"/>
<path d="M5042 3444 c-25 -20 -39 -24 -65 -20 -27 6 -23 2 23 -23 30 -16 59
-27 64 -24 5 3 -1 11 -13 18 -22 11 -22 12 13 36 20 13 36 27 36 32 0 14 -26
6 -58 -19z"/>
<path d="M6023 3463 c-7 -2 -13 -14 -13 -25 0 -14 5 -18 15 -14 8 3 15 1 15
-4 0 -17 60 -11 67 6 11 30 -43 54 -84 37z"/>
<path d="M7647 3459 c7 -7 15 -10 18 -7 3 3 -2 9 -12 12 -14 6 -15 5 -6 -5z"/>
<path d="M4380 3452 c0 -4 9 -8 19 -8 11 0 17 4 15 8 -3 4 -12 8 -20 8 -8 0
-14 -4 -14 -8z"/>
<path d="M6400 3424 c0 -14 3 -14 16 -3 13 10 17 10 25 -2 7 -11 9 -11 9 4 0
12 -8 17 -25 17 -16 0 -25 -6 -25 -16z"/>
<path d="M5133 3423 c-7 -2 -13 -11 -13 -18 0 -7 -9 -15 -20 -18 -29 -7 -25
-24 10 -42 40 -21 46 -20 92 17 l40 31 -33 18 c-34 18 -54 22 -76 12z m56 -22
c9 -6 10 -10 2 -16 -15 -8 -41 1 -41 15 0 12 20 13 39 1z m-37 -43 c-9 -9 -15
-9 -24 0 -9 9 -7 12 12 12 19 0 21 -3 12 -12z"/>
<path d="M4580 3385 c-26 -28 -27 -26 15 -48 24 -13 27 -17 13 -22 -9 -4 -30
1 -47 10 -31 15 -31 15 -31 -9 0 -35 10 -56 26 -56 8 0 14 -9 14 -20 0 -44 95
-8 113 43 4 10 11 16 16 13 5 -3 11 3 14 14 3 11 1 20 -4 20 -5 0 -9 17 -9 38
0 26 -3 33 -10 22 -8 -12 -14 -12 -45 3 -44 21 -37 22 -65 -8z"/>
<path d="M7478 3393 c-9 -10 -21 -28 -27 -41 -11 -21 -11 -23 6 -14 31 17 64
53 58 63 -9 14 -20 11 -37 -8z"/>
<path d="M4870 3386 c0 -2 9 -6 20 -9 11 -3 20 -1 20 4 0 5 -9 9 -20 9 -11 0
-20 -2 -20 -4z"/>
<path d="M6178 3383 c-21 -5 -21 -8 -8 -33 19 -36 100 -32 100 5 0 27 -45 40
-92 28z"/>
<path d="M3997 3373 c-3 -5 6 -8 19 -8 13 0 24 3 24 8 0 4 -9 7 -19 7 -11 0
-22 -3 -24 -7z"/>
<path d="M6370 3349 c-24 -22 -29 -29 -15 -25 14 4 31 -3 53 -24 18 -17 37
-31 43 -31 5 -1 13 -2 18 -3 5 0 12 -4 16 -8 4 -4 14 -4 22 -1 8 3 18 1 22 -5
4 -7 18 -2 39 15 l33 25 -27 15 c-36 18 -59 10 -44 -16 14 -27 13 -30 -10 -24
-11 3 -18 9 -15 13 3 4 -3 11 -13 15 -15 6 -15 8 6 25 27 23 24 33 -17 50 -26
10 -33 10 -46 -4 -22 -22 -53 -22 -35 -1 19 23 8 17 -30 -16z"/>
<path d="M8355 3370 c4 -6 38 -26 76 -45 38 -20 69 -39 69 -43 0 -9 -183 -160
-204 -168 -8 -3 -28 2 -45 10 -16 9 -35 16 -40 16 -20 0 0 -26 34 -45 l35 -18
-23 -16 c-40 -28 -216 -171 -222 -181 -18 -29 26 3 178 130 93 77 204 168 247
202 59 47 76 65 69 75 -10 11 -164 93 -175 93 -3 0 -2 -5 1 -10z"/>
<path d="M3875 3360 c-4 -6 3 -10 14 -10 25 0 27 6 6 13 -8 4 -17 2 -20 -3z"/>
<path d="M7365 3350 c3 -5 11 -10 16 -10 6 0 7 5 4 10 -3 6 -11 10 -16 10 -6
0 -7 -4 -4 -10z"/>
<path d="M3904 3331 c-26 -21 -35 -46 -22 -59 7 -7 7 -16 0 -27 -8 -16 -11
-15 -25 6 -20 27 -34 18 -43 -27 -5 -26 -2 -32 15 -37 19 -5 20 -2 16 26 -5
30 -4 31 10 13 8 -11 15 -23 15 -28 0 -11 60 -2 73 11 14 14 17 61 5 61 -4 0
-8 6 -8 14 0 10 -7 12 -22 8 -23 -5 -23 -5 -4 16 16 18 21 20 30 8 6 -8 51
-34 99 -58 l88 -44 -20 -26 c-12 -14 -21 -29 -21 -32 0 -11 54 6 65 19 6 7 24
15 40 17 26 3 8 15 -120 80 -143 72 -151 75 -171 59z"/>
<path d="M8015 3333 c-22 -7 -51 -11 -65 -8 -22 5 -23 4 -6 -6 10 -6 33 -9 51
-6 28 5 34 2 39 -16 6 -21 7 -21 22 7 21 37 8 47 -41 29z"/>
<path d="M7698 3322 c-16 -9 -28 -20 -28 -24 0 -14 79 -48 85 -38 3 6 15 10
26 10 24 0 83 -29 75 -37 -8 -8 13 -43 26 -43 7 0 6 5 -2 15 -7 9 -11 17 -9
18 2 2 19 15 37 29 32 27 28 47 -6 29 -15 -8 -33 -3 -83 24 -73 39 -84 41
-121 17z"/>
<path d="M6280 3280 c-9 -6 -10 -10 -3 -10 6 0 15 5 18 10 8 12 4 12 -15 0z"/>
<path d="M6324 3276 c-4 -9 -18 -16 -33 -16 -15 0 -36 -7 -47 -15 -19 -14 -19
-14 2 -15 12 0 28 -7 35 -17 25 -29 130 -69 114 -43 -4 7 2 7 19 1 35 -14 51
7 30 38 -15 21 -17 21 -35 5 -11 -9 -25 -14 -35 -10 -16 6 -15 8 4 22 34 23
31 27 -40 62 -5 2 -11 -3 -14 -12z"/>
<path d="M4760 3260 c-17 -13 -20 -20 -10 -20 8 0 22 -5 30 -10 13 -9 13 -11
1 -19 -9 -6 -22 -4 -38 6 -21 14 -23 14 -23 -5 0 -12 -4 -24 -10 -27 -20 -12
-9 -22 38 -33 38 -8 48 -8 55 3 4 8 14 12 22 9 8 -3 20 4 27 15 7 12 18 21 25
21 20 0 15 25 -7 45 -11 10 -20 15 -20 11 0 -4 -10 0 -22 8 -29 20 -38 20 -68
-4z"/>
<path d="M6592 3245 c-12 -14 -18 -25 -13 -25 6 0 13 5 16 10 3 6 15 10 26 10
11 0 17 -4 14 -10 -3 -5 1 -10 9 -10 10 0 16 9 16 23 0 33 -41 34 -68 2z"/>
<path d="M4511 3256 c2 -2 15 -9 29 -15 24 -11 24 -11 6 3 -16 13 -49 24 -35
12z"/>
<path d="M7295 3240 c-8 -13 9 -20 24 -11 10 6 9 10 -3 14 -8 3 -18 2 -21 -3z"/>
<path d="M4940 3172 l-24 -19 22 -7 c12 -4 22 -11 22 -15 0 -18 -15 -20 -37
-6 -21 14 -24 14 -29 1 -3 -8 -3 -20 1 -26 3 -6 -4 -10 -17 -11 -13 0 2 -8 32
-16 30 -8 58 -20 62 -26 7 -11 13 4 9 26 -1 4 4 7 11 6 28 -3 38 2 38 20 0 12
10 23 28 29 26 9 27 9 5 16 -13 4 -23 11 -23 16 0 4 -10 10 -22 13 -13 2 -30
7 -39 11 -9 4 -26 -1 -39 -12z"/>
<path d="M6825 3170 c-9 -10 -15 -26 -12 -34 3 -8 1 -17 -6 -20 -7 -3 -3 -4 7
-3 10 1 21 -4 23 -10 7 -19 -17 -16 -59 6 -36 20 -36 20 -41 0 -4 -15 -2 -19
10 -15 11 5 13 0 9 -22 -5 -22 -2 -29 19 -39 16 -7 25 -7 25 -1 0 5 -9 12 -21
15 -12 4 -18 11 -15 20 3 8 6 16 6 19 0 2 15 1 33 -1 45 -8 68 16 43 44 -17
18 -17 20 3 30 28 15 33 14 26 -8 -4 -14 2 -22 24 -32 26 -11 28 -16 19 -38
-9 -25 -9 -25 11 -7 24 22 14 50 -20 61 -12 4 -18 12 -15 21 5 13 -21 34 -42
34 -5 0 -17 -9 -27 -20z"/>
<path d="M7020 3179 c0 -7 8 -17 17 -24 15 -11 15 -15 -6 -48 -26 -43 -16 -77
23 -77 22 0 106 60 114 81 3 7 -127 79 -143 79 -3 0 -5 -5 -5 -11z"/>
<path d="M6630 3150 c0 -6 7 -10 15 -10 8 0 15 2 15 4 0 2 -7 6 -15 10 -8 3
-15 1 -15 -4z"/>
<path d="M3887 3139 c7 -7 15 -10 18 -7 3 3 -2 9 -12 12 -14 6 -15 5 -6 -5z"/>
<path d="M5200 3134 c0 -8 5 -12 10 -9 6 4 8 11 5 16 -9 14 -15 11 -15 -7z"/>
<path d="M7695 3120 c-3 -5 -17 -10 -30 -10 -18 0 -23 -4 -19 -15 4 -8 2 -15
-3 -15 -4 0 -20 -11 -35 -25 -15 -14 -41 -28 -58 -31 -16 -4 -30 -11 -30 -17
0 -6 -12 -21 -27 -34 l-28 -22 66 -1 c46 0 70 4 78 14 10 12 8 17 -8 26 -18 9
-19 13 -8 30 9 16 23 20 67 20 69 1 118 30 69 43 -16 4 -19 11 -14 26 6 21 -9
29 -20 11z m-1 -49 c3 -5 -3 -11 -14 -14 -20 -5 -26 3 -13 16 9 10 21 9 27 -2z
m-121 -98 c-7 -2 -19 -2 -25 0 -7 3 -2 5 12 5 14 0 19 -2 13 -5z"/>
<path d="M5238 3113 c7 -3 16 -2 19 1 4 3 -2 6 -13 5 -11 0 -14 -3 -6 -6z"/>
<path d="M6670 3110 c0 -5 5 -10 10 -10 6 0 10 5 10 10 0 6 -4 10 -10 10 -5 0
-10 -4 -10 -10z"/>
<path d="M8139 3084 c-5 -15 -12 -31 -16 -36 -10 -18 31 9 56 36 l24 26 -27 0
c-19 0 -29 -7 -37 -26z"/>
<path d="M6488 3093 c6 -2 18 -2 25 0 6 3 1 5 -13 5 -14 0 -19 -2 -12 -5z"/>
<path d="M7895 3074 l-30 -26 33 22 c17 12 32 23 32 26 0 7 -4 5 -35 -22z"/>
<path d="M4677 3083 c-3 -5 6 -9 19 -9 13 -1 21 2 18 7 -6 11 -31 12 -37 2z"/>
<path d="M6451 3066 c8 -17 20 -23 47 -24 l37 -2 -30 18 c-17 10 -38 21 -47
25 -15 5 -16 3 -7 -17z"/>
<path d="M7476 3065 c-11 -8 -40 -15 -65 -15 -56 0 -51 -7 11 -13 36 -4 52 -1
67 12 35 30 23 43 -13 16z"/>
<path d="M6376 3054 c-13 -35 -5 -53 29 -70 43 -20 44 -26 5 -41 -36 -14 -39
-39 -6 -54 20 -10 31 -8 59 10 36 22 72 27 81 12 4 -5 -22 -19 -56 -30 -51
-17 -56 -20 -25 -16 32 3 37 2 27 -10 -9 -11 -7 -16 9 -24 29 -16 48 -13 25 4
-18 14 -18 14 11 15 17 1 39 5 50 9 19 8 19 8 0 19 -13 8 -15 11 -6 12 8 0 26
14 41 31 26 31 26 32 57 15 18 -9 34 -12 37 -7 3 4 -6 13 -19 19 -32 15 -32
38 0 46 22 6 25 12 23 41 -2 30 -5 35 -28 34 -25 0 -25 0 -2 -9 12 -5 22 -13
22 -19 0 -13 -35 -20 -52 -10 -10 6 -20 4 -28 -6 -7 -8 -19 -15 -26 -15 -8 0
-14 -4 -14 -10 0 -15 11 -12 32 7 10 9 21 13 26 9 12 -13 -48 -57 -69 -51 -10
4 -19 2 -19 -4 0 -6 -34 8 -75 30 -41 22 -80 37 -85 34 -6 -3 -10 -2 -10 4 0
5 5 11 12 13 6 2 8 10 4 16 -10 17 -23 15 -30 -4z m334 -38 c0 -11 -19 -15
-25 -6 -3 5 1 10 9 10 9 0 16 -2 16 -4z m-260 -101 c-7 -8 -19 -15 -26 -15 -8
0 -14 7 -14 15 0 10 10 15 26 15 22 0 25 -2 14 -15z m103 -42 c-7 -2 -21 -2
-30 0 -10 3 -4 5 12 5 17 0 24 -2 18 -5z"/>
<path d="M6926 3051 c-4 -5 3 -7 14 -4 23 6 26 13 6 13 -8 0 -17 -4 -20 -9z"/>
<path d="M5380 3042 c0 -6 9 -12 20 -15 11 -3 20 -3 20 -1 0 2 -9 8 -20 14
-11 6 -20 7 -20 2z"/>
<path d="M7325 3039 c-4 -6 -5 -11 -4 -12 14 -8 100 -47 104 -47 17 0 0 19
-30 33 -19 9 -35 21 -35 27 0 13 -27 13 -35 -1z"/>
<path d="M5446 3007 c3 -10 9 -15 12 -12 3 3 0 11 -7 18 -10 9 -11 8 -5 -6z"/>
<path d="M5000 2991 c0 -5 9 -7 20 -4 11 3 20 7 20 9 0 2 -9 4 -20 4 -11 0
-20 -4 -20 -9z"/>
<path d="M6328 2962 c-27 -30 -23 -52 10 -52 12 0 12 2 1 17 -13 15 -12 16 9
11 19 -5 22 -3 16 14 -5 18 -3 19 28 13 39 -8 28 10 -12 20 -19 4 -31 -1 -52
-23z"/>
<path d="M7759 2963 l-24 -28 28 24 c15 14 27 26 27 28 0 8 -8 1 -31 -24z"/>
<path d="M7225 2936 c-16 -13 -28 -26 -25 -29 3 -3 33 -19 68 -36 34 -17 62
-38 62 -45 0 -19 21 -26 43 -14 9 5 23 6 29 2 7 -5 8 -3 3 6 -5 8 5 24 31 47
l39 34 -36 -6 c-29 -4 -49 1 -102 30 -35 19 -69 35 -73 35 -5 0 -22 -11 -39
-24z"/>
<path d="M7649 2873 l-24 -28 28 24 c15 14 27 26 27 28 0 8 -8 1 -31 -24z"/>
<path d="M6571 2831 c-8 -13 -7 -22 2 -28 28 -22 47 -22 74 2 24 21 26 26 13
35 -26 17 -78 12 -89 -9z m64 0 c3 -6 -3 -15 -14 -21 -24 -12 -42 7 -20 21 18
11 26 11 34 0z"/>
<path d="M4812 2828 c2 -7 14 -17 27 -23 13 -6 20 -16 18 -26 -3 -9 0 -24 5
-33 6 -10 5 -16 -2 -16 -6 0 -13 7 -16 15 -4 8 -12 15 -20 15 -16 0 -19 -16
-5 -24 14 -9 20 -57 7 -53 -6 2 -12 13 -14 25 -2 12 -9 22 -16 22 -9 0 -12 9
-8 26 l5 26 -41 -29 c-34 -23 -41 -34 -42 -61 0 -70 100 -114 201 -88 81 21
110 71 73 124 -10 15 -22 21 -32 17 -9 -3 -14 -3 -10 0 3 4 -2 15 -13 26 -11
11 -17 24 -14 29 7 11 7 11 123 -52 l72 -40 -32 -22 c-46 -30 -44 -60 3 -64
30 -2 37 1 42 17 3 13 -1 24 -10 30 -22 12 -2 22 46 24 22 1 39 2 38 3 -11 9
-283 144 -291 144 -5 0 -18 -7 -27 -16 -17 -15 -20 -15 -45 1 -19 12 -25 13
-22 3z m128 -133 c0 -8 -2 -15 -4 -15 -2 0 -6 7 -10 15 -3 8 -1 15 4 15 6 0
10 -7 10 -15z m165 -44 c3 -5 1 -13 -5 -16 -15 -9 -43 3 -35 15 8 13 32 13 40
1z m-165 -21 c0 -5 -4 -10 -10 -10 -5 0 -10 5 -10 10 0 6 5 10 10 10 6 0 10
-4 10 -10z"/>
<path d="M6455 2822 c-5 -4 -19 -18 -30 -31 l-20 -23 41 6 c36 6 42 5 46 -12
3 -11 15 -25 25 -31 16 -8 27 -5 52 14 31 22 32 24 13 34 -12 6 -30 11 -42 11
-29 0 -62 19 -55 31 7 11 -15 12 -30 1z m105 -50 c0 -15 -22 -30 -36 -25 -11
4 -12 9 -3 19 12 15 39 19 39 6z"/>
<path d="M7984 2805 c-10 -8 -14 -15 -8 -15 6 0 17 7 24 15 16 19 9 19 -16 0z"/>
<path d="M5347 2803 c-3 -5 8 -8 23 -8 15 0 26 3 23 8 -2 4 -13 7 -23 7 -10 0
-21 -3 -23 -7z"/>
<path d="M6337 2789 c7 -7 15 -10 18 -7 3 3 -2 9 -12 12 -14 6 -15 5 -6 -5z"/>
<path d="M7933 2767 c-12 -12 -33 -33 -47 -47 -31 -29 -32 -36 -7 -36 11 0 17
4 15 8 -3 5 2 11 11 14 9 4 14 13 11 20 -3 9 2 14 14 14 11 0 20 4 20 9 0 5
10 13 21 16 17 6 19 9 8 16 -19 12 -21 12 -46 -14z"/>
<path d="M5277 2733 c-3 -5 8 -8 24 -9 15 -1 26 3 23 7 -6 11 -41 12 -47 2z"/>
<path d="M5205 2661 c-12 -9 -20 -28 -20 -46 0 -31 -9 -35 -52 -21 -16 5 -23
2 -28 -14 -7 -22 -32 -50 -45 -50 -4 0 -6 10 -3 23 4 15 2 19 -5 12 -10 -10
-15 -35 -13 -67 0 -9 16 -26 35 -37 40 -25 61 -28 27 -4 -22 15 -23 17 -7 29
12 8 16 19 11 33 -4 13 -2 21 5 21 21 0 50 -21 50 -35 0 -8 5 -15 10 -15 6 0
10 4 10 10 0 5 7 7 16 3 9 -3 19 -1 23 5 4 7 14 -2 25 -23 11 -19 23 -35 28
-35 17 0 58 49 58 69 0 27 -29 55 -44 42 -8 -7 -17 2 -30 30 -11 21 -17 42
-14 45 6 6 178 -77 178 -87 0 -3 -11 -11 -24 -17 -35 -16 -50 -46 -31 -62 19
-16 81 -5 89 17 6 14 8 14 24 -1 10 -9 23 -16 28 -16 5 0 10 -18 11 -40 1 -22
-2 -40 -8 -40 -5 0 -9 3 -9 8 0 4 -12 21 -26 37 -23 27 -25 28 -21 8 3 -15 0
-23 -8 -23 -17 0 -25 -23 -14 -41 7 -11 9 -11 9 3 0 9 3 19 8 21 4 3 6 -13 5
-35 -1 -35 2 -41 28 -52 16 -7 26 -15 23 -19 -4 -4 -13 -2 -20 4 -10 9 -15 7
-20 -4 -3 -10 -12 -13 -22 -10 -21 9 -52 35 -48 42 2 3 -6 15 -17 25 -20 19
-20 19 -13 -9 8 -32 26 -49 73 -71 34 -15 110 -19 129 -6 15 9 -1 56 -16 47
-23 -14 -8 24 16 40 l26 17 -7 -32 c-14 -62 42 -74 65 -14 13 33 -5 69 -47 94
-18 10 -33 26 -33 35 0 8 2 15 5 15 18 0 154 -76 164 -92 10 -16 7 -23 -20
-45 -29 -24 -30 -28 -13 -34 29 -12 32 -10 27 9 -6 24 30 42 84 45 23 0 41 2
40 4 -2 1 -69 36 -150 78 -143 74 -149 76 -168 59 -16 -14 -24 -15 -44 -6 -14
6 -25 16 -25 21 0 13 27 21 48 15 44 -15 -211 122 -272 146 -15 5 -28 3 -41
-9z m245 -145 c0 -16 -37 -46 -57 -46 -19 0 -16 37 5 49 25 15 52 13 52 -3z
m110 -140 c0 -3 -4 -8 -10 -11 -5 -3 -10 -1 -10 4 0 6 5 11 10 11 6 0 10 -2
10 -4z"/>
<path d="M5477 2644 c-4 -4 -7 -11 -7 -16 0 -13 50 -6 53 7 2 12 -36 19 -46 9z"/>
<path d="M4969 2596 c10 -11 5 -20 -25 -42 -32 -25 -34 -29 -18 -35 32 -13 50
-11 36 3 -18 18 14 48 52 48 l31 1 -35 19 c-42 23 -57 25 -41 6z"/>
<path d="M6023 2576 c17 -13 15 -16 -23 -47 -43 -35 -42 -43 5 -53 27 -6 28
-5 12 8 -17 13 -16 15 13 40 23 19 38 24 56 20 36 -9 29 3 -16 26 -45 23 -75
27 -47 6z"/>
<path d="M6368 2584 c-5 -4 -8 -16 -8 -28 0 -14 3 -17 11 -9 6 6 9 19 7 28 -1
9 -6 13 -10 9z"/>
<path d="M2827 2509 c-4 -16 -3 -18 9 -8 7 6 11 15 8 20 -8 13 -11 11 -17 -12z"/>
<path d="M6118 2483 c12 -8 22 -19 22 -24 0 -13 -44 -11 -57 2 -6 6 -17 9 -25
7 -16 -6 43 -38 69 -38 21 1 90 57 81 66 -4 3 -16 0 -28 -6 -17 -9 -29 -9 -47
-1 -34 16 -42 13 -15 -6z"/>
<path d="M2836 2445 c-7 -19 10 -65 24 -65 7 0 7 7 -1 21 -8 15 -8 19 0 15 6
-4 11 -2 11 3 0 6 -5 11 -11 11 -5 0 -8 4 -4 9 3 5 1 12 -4 15 -5 3 -11 -1
-15 -9z"/>
<path d="M5207 2453 c-13 -12 -7 -23 12 -23 26 0 35 16 15 24 -19 7 -19 7 -27
-1z"/>
<path d="M5299 2426 c9 -11 5 -15 -20 -20 -44 -9 -62 -25 -48 -42 6 -8 21 -13
33 -13 17 1 17 2 4 6 -37 10 -18 32 32 39 56 7 62 15 25 32 -34 16 -40 15 -26
-2z"/>
<path d="M5869 2324 c-7 -9 -22 -14 -36 -11 -21 4 -22 3 -10 -12 19 -21 31
-61 19 -61 -5 0 -15 7 -22 15 -7 8 -17 15 -23 15 -15 0 -77 -43 -77 -54 0 -5
-7 -14 -16 -20 -26 -19 -1 -64 48 -86 66 -30 174 -23 154 9 -4 6 -2 11 3 11 6
0 11 -4 11 -10 0 -16 18 -12 40 10 30 30 24 60 -20 108 -36 39 -49 62 -35 62
15 0 171 -85 181 -99 15 -20 9 -31 -17 -31 -11 0 -29 -5 -40 -11 -16 -8 -18
-13 -8 -25 6 -8 19 -14 28 -14 13 0 13 2 2 9 -21 14 -3 31 32 31 18 0 43 9 56
19 l23 18 -63 35 c-69 39 -206 108 -213 108 -2 0 -9 -7 -17 -16z"/>
<path d="M5628 2258 c10 -10 3 -15 -30 -23 -33 -8 -43 -15 -43 -30 0 -14 8
-21 25 -23 24 -3 24 -3 5 11 -25 19 -18 26 31 33 66 9 72 14 44 29 -31 18 -48
19 -32 3z"/>
<path d="M3485 2169 c4 -12 3 -19 -2 -16 -5 3 -14 2 -21 -2 -8 -5 -2 -12 16
-23 l27 -16 -3 39 c-2 21 -8 39 -14 39 -5 0 -6 -10 -3 -21z"/>
<path d="M5959 2086 c9 -11 9 -15 -1 -19 -7 -3 -1 -6 14 -6 36 -1 43 14 12 28
-33 15 -39 14 -25 -3z"/>
<path d="M5892 2048 c-14 -14 3 -38 27 -37 10 0 11 2 4 6 -19 7 -16 31 5 36
14 4 13 5 -3 6 -12 0 -26 -4 -33 -11z"/>
<path d="M6829 2003 c-13 -16 -12 -17 4 -4 16 13 21 21 13 21 -2 0 -10 -8 -17
-17z"/>
<path d="M3780 1960 c0 -5 5 -10 10 -10 6 0 10 5 10 10 0 6 -4 10 -10 10 -5 0
-10 -4 -10 -10z"/>
<path d="M3780 1921 c0 -6 4 -13 10 -16 6 -3 7 1 4 9 -7 18 -14 21 -14 7z"/>
<path d="M4101 1886 c-9 -11 -9 -16 0 -22 7 -4 9 -3 5 4 -3 5 0 12 6 15 7 2
10 7 7 11 -3 4 -12 0 -18 -8z"/>
<path d="M4111 1822 c0 -7 -6 -10 -12 -6 -8 4 -8 0 0 -15 9 -16 9 -21 -1 -21
-9 0 -9 -3 -1 -11 7 -7 20 -9 30 -5 11 5 14 9 6 14 -6 4 -13 18 -16 32 -2 14
-5 19 -6 12z"/>
<path d="M4111 1734 c13 -16 29 -19 29 -5 0 5 -9 11 -21 14 -16 4 -18 3 -8 -9z"/>
<path d="M5720 1446 c0 -22 3 -27 11 -19 8 8 8 16 0 30 -9 16 -10 14 -11 -11z"/>
<path d="M5075 1230 c3 -5 8 -10 11 -10 2 0 4 5 4 10 0 6 -5 10 -11 10 -5 0
-7 -4 -4 -10z"/>
<path d="M6450 1103 c0 -26 1 -26 15 -7 19 25 19 34 0 34 -10 0 -15 -10 -15
-27z"/>
<path d="M5720 1014 c0 -8 9 -14 20 -14 11 0 20 4 20 9 0 5 -9 11 -20 14 -13
3 -20 0 -20 -9z"/>
<path d="M6471 973 c-1 -12 -5 -25 -11 -28 -5 -3 -11 -21 -11 -38 l-1 -32 -8
30 c-4 17 -9 23 -10 15 -5 -35 -5 -57 2 -82 3 -15 3 -30 -2 -33 -4 -3 -11 -22
-14 -42 -4 -21 -9 -45 -12 -54 -7 -26 -41 -11 -56 24 l-13 32 -5 -35 c-8 -51
-2 -62 34 -58 33 3 32 5 28 -72 -3 -45 -22 -36 -22 9 0 22 -5 43 -10 46 -15
10 -35 -16 -38 -51 -3 -26 1 -33 26 -43 25 -11 34 -10 55 4 14 9 28 23 32 32
9 24 46 375 41 387 -2 6 -5 1 -5 -11z"/>
<path d="M6033 790 c1 -22 5 -40 10 -40 4 0 5 5 1 12 -5 7 -2 9 9 5 20 -7 15
26 -7 48 -13 14 -15 11 -13 -25z"/>
</g>
</svg>
